<svg width="317" height="360" viewBox="0 0 317 360" fill="none" xmlns="http://www.w3.org/2000/svg">
<g filter="url(#filter0_bd_215_1945)">
<path d="M288.839 87.7092L294.732 97.9691L296.299 91.9164C296.501 91.1983 297.24 90.8075 297.981 91.0265C298.706 91.2539 299.152 92.0295 298.965 92.7392L296.567 101.949C296.386 102.634 295.6 103.05 294.9 102.83L285.505 99.8576C284.78 99.6303 284.335 98.8547 284.522 98.145C284.627 97.794 284.854 97.506 285.151 97.3488C285.449 97.1908 285.838 97.1537 286.188 97.2635L292.373 99.2164L286.481 88.9566C286.091 88.278 286.304 87.4704 286.964 87.1211C287.609 86.7802 288.45 87.0306 288.839 87.7092Z" fill="#268EEC"/>
<path d="M294.29 98.2028L294.915 99.2913L295.224 98.0974L296.789 92.0503C296.919 91.5998 297.371 91.3607 297.837 91.4963C298.301 91.6441 298.593 92.1543 298.473 92.6089L298.473 92.6102L296.075 101.819C296.075 101.819 296.075 101.819 296.075 101.819C295.966 102.233 295.471 102.494 295.048 102.362C295.048 102.362 295.048 102.362 295.048 102.362L285.654 99.3896L285.653 99.3892C285.19 99.2439 284.897 98.7372 285.011 98.2833C285.086 98.0428 285.235 97.8696 285.4 97.7824C285.576 97.6891 285.821 97.6633 286.04 97.7318C286.04 97.7319 286.04 97.7319 286.04 97.732L292.225 99.6846L293.439 100.068L292.815 98.9827L286.923 88.7229C286.66 88.2645 286.816 87.7648 287.213 87.5547C287.598 87.351 288.136 87.4885 288.397 87.943L294.29 98.2028Z" stroke="#268EEC"/>
</g>
<g filter="url(#filter1_bd_215_1945)">
<path d="M166.783 338.335L154.951 338.314L159.453 342.696C159.979 343.23 159.957 344.066 159.402 344.598C158.847 345.113 157.953 345.112 157.427 344.595L150.583 337.916C150.074 337.417 150.099 336.528 150.634 336.031L157.84 329.376C158.394 328.861 159.288 328.863 159.815 329.379C160.068 329.646 160.208 329.986 160.199 330.322C160.19 330.66 160.031 331.015 159.764 331.264L155.023 335.647L166.856 335.668C167.638 335.669 168.237 336.257 168.217 337.004C168.197 337.733 167.566 338.336 166.783 338.335Z" fill="#268EEC"/>
</g>
<g filter="url(#filter2_bd_215_1945)">
<path d="M18.6559 103.819L24.4361 93.4958L18.3934 95.3325C17.6678 95.5363 16.9446 95.1169 16.7469 94.3778C16.5647 93.6475 17.0016 92.8671 17.7118 92.6545L26.9137 89.8716C27.5994 89.6662 28.3688 90.1124 28.5447 90.8175L30.8832 100.293C31.0655 101.023 30.6285 101.803 29.9183 102.016C29.5601 102.11 29.1934 102.069 28.9026 101.901C28.6102 101.731 28.3753 101.423 28.2873 101.07L26.7441 94.8343L20.9639 105.158C20.5816 105.841 19.7735 106.083 19.1272 105.708C18.4963 105.342 18.2735 104.502 18.6559 103.819Z" fill="#268EEC"/>
</g>
<rect x="0.5" y="21.4951" width="316" height="314.974" rx="157.487" stroke="url(#paint0_linear_215_1945)" stroke-opacity="0.2"/>
<rect x="274.5" y="238.478" width="39" height="39" rx="19.5" fill="#20222C" stroke="url(#paint1_linear_215_1945)"/>
<path d="M289.988 265.31C289.854 265.31 289.741 265.27 289.648 265.19C289.568 265.097 289.528 264.984 289.528 264.85V264.21C289.528 264.09 289.561 263.957 289.628 263.81C289.694 263.664 289.828 263.504 290.028 263.33L294.268 259.09C294.948 258.517 295.481 258.03 295.868 257.63C296.268 257.217 296.548 256.824 296.708 256.45C296.881 256.077 296.968 255.69 296.968 255.29C296.968 254.53 296.754 253.93 296.328 253.49C295.901 253.037 295.268 252.81 294.428 252.81C293.894 252.81 293.434 252.924 293.048 253.15C292.661 253.364 292.354 253.664 292.128 254.05C291.914 254.424 291.774 254.85 291.708 255.33C291.681 255.504 291.608 255.624 291.488 255.69C291.381 255.757 291.281 255.79 291.188 255.79H290.148C290.028 255.79 289.928 255.757 289.848 255.69C289.768 255.61 289.728 255.517 289.728 255.41C289.741 254.904 289.848 254.397 290.048 253.89C290.248 253.37 290.541 252.904 290.928 252.49C291.328 252.077 291.814 251.744 292.388 251.49C292.974 251.224 293.654 251.09 294.428 251.09C295.481 251.09 296.341 251.284 297.008 251.67C297.688 252.044 298.188 252.544 298.508 253.17C298.828 253.797 298.988 254.484 298.988 255.23C298.988 255.817 298.888 256.357 298.688 256.85C298.488 257.33 298.194 257.804 297.808 258.27C297.434 258.724 296.968 259.19 296.408 259.67L292.568 263.57H298.808C298.954 263.57 299.068 263.61 299.148 263.69C299.241 263.77 299.288 263.884 299.288 264.03V264.85C299.288 264.984 299.241 265.097 299.148 265.19C299.068 265.27 298.954 265.31 298.808 265.31H289.988Z" fill="url(#paint2_linear_215_1945)"/>
<rect x="2.5" y="238.478" width="39" height="39" rx="19.5" fill="#20222C" stroke="url(#paint3_linear_215_1945)"/>
<path d="M22.3708 265.51C21.5308 265.51 20.7975 265.41 20.1708 265.21C19.5441 264.997 19.0175 264.717 18.5908 264.37C18.1641 264.024 17.8375 263.644 17.6108 263.23C17.3975 262.817 17.2841 262.39 17.2708 261.95C17.2708 261.83 17.3108 261.737 17.3908 261.67C17.4708 261.604 17.5708 261.57 17.6908 261.57H18.6708C18.7908 261.57 18.8975 261.597 18.9908 261.65C19.0841 261.704 19.1641 261.817 19.2308 261.99C19.3641 262.47 19.5908 262.844 19.9108 263.11C20.2441 263.377 20.6241 263.564 21.0508 263.67C21.4908 263.764 21.9308 263.81 22.3708 263.81C23.2908 263.81 24.0375 263.59 24.6108 263.15C25.1841 262.71 25.4708 262.064 25.4708 261.21C25.4708 260.344 25.2108 259.724 24.6908 259.35C24.1708 258.977 23.4508 258.79 22.5308 258.79H20.6308C20.4975 258.79 20.3841 258.75 20.2908 258.67C20.2108 258.59 20.1708 258.477 20.1708 258.33V257.79C20.1708 257.67 20.1908 257.57 20.2308 257.49C20.2841 257.397 20.3375 257.317 20.3908 257.25L24.2708 253.01H18.3708C18.2375 253.01 18.1241 252.97 18.0308 252.89C17.9508 252.81 17.9108 252.697 17.9108 252.55V251.79C17.9108 251.644 17.9508 251.53 18.0308 251.45C18.1241 251.357 18.2375 251.31 18.3708 251.31H26.3508C26.4975 251.31 26.6108 251.357 26.6908 251.45C26.7841 251.53 26.8308 251.644 26.8308 251.79V252.51C26.8308 252.604 26.8041 252.69 26.7508 252.77C26.7108 252.837 26.6641 252.904 26.6108 252.97L22.7508 257.27L23.0708 257.29C23.9508 257.317 24.7175 257.477 25.3708 257.77C26.0375 258.064 26.5508 258.504 26.9108 259.09C27.2841 259.664 27.4708 260.39 27.4708 261.27C27.4708 262.164 27.2508 262.93 26.8108 263.57C26.3708 264.197 25.7641 264.677 24.9908 265.01C24.2175 265.344 23.3441 265.51 22.3708 265.51Z" fill="url(#paint4_linear_215_1945)"/>
<rect x="138.5" y="1.49683" width="39" height="39" rx="19.5" fill="#20222C" stroke="url(#paint5_linear_215_1945)"/>
<path d="M159.659 28.3295C159.526 28.3295 159.413 28.2895 159.319 28.2095C159.239 28.1161 159.199 28.0028 159.199 27.8695V16.6695L155.879 19.2295C155.773 19.3095 155.659 19.3428 155.539 19.3295C155.419 19.3161 155.319 19.2561 155.239 19.1495L154.719 18.4895C154.639 18.3695 154.606 18.2495 154.619 18.1295C154.646 18.0095 154.713 17.9095 154.819 17.8295L159.179 14.4695C159.273 14.4028 159.359 14.3628 159.439 14.3495C159.519 14.3361 159.606 14.3295 159.699 14.3295H160.719C160.853 14.3295 160.959 14.3761 161.039 14.4695C161.119 14.5495 161.159 14.6561 161.159 14.7895V27.8695C161.159 28.0028 161.119 28.1161 161.039 28.2095C160.959 28.2895 160.853 28.3295 160.719 28.3295H159.659Z" fill="url(#paint6_linear_215_1945)"/>
<defs>
<filter id="filter0_bd_215_1945" x="269.479" y="71.9696" width="44.5284" height="45.9198" filterUnits="userSpaceOnUse" color-interpolation-filters="sRGB">
<feFlood flood-opacity="0" result="BackgroundImageFix"/>
<feGaussianBlur in="BackgroundImageFix" stdDeviation="7.5"/>
<feComposite in2="SourceAlpha" operator="in" result="effect1_backgroundBlur_215_1945"/>
<feColorMatrix in="SourceAlpha" type="matrix" values="0 0 0 0 0 0 0 0 0 0 0 0 0 0 0 0 0 0 127 0" result="hardAlpha"/>
<feOffset dx="5" dy="5"/>
<feGaussianBlur stdDeviation="5"/>
<feColorMatrix type="matrix" values="0 0 0 0 0.00761719 0 0 0 0 0.00761719 0 0 0 0 0.00761719 0 0 0 0.5 0"/>
<feBlend mode="normal" in2="effect1_backgroundBlur_215_1945" result="effect2_dropShadow_215_1945"/>
<feBlend mode="normal" in="SourceGraphic" in2="effect2_dropShadow_215_1945" result="shape"/>
</filter>
<filter id="filter1_bd_215_1945" x="135.216" y="313.991" width="48.001" height="45.9929" filterUnits="userSpaceOnUse" color-interpolation-filters="sRGB">
<feFlood flood-opacity="0" result="BackgroundImageFix"/>
<feGaussianBlur in="BackgroundImageFix" stdDeviation="7.5"/>
<feComposite in2="SourceAlpha" operator="in" result="effect1_backgroundBlur_215_1945"/>
<feColorMatrix in="SourceAlpha" type="matrix" values="0 0 0 0 0 0 0 0 0 0 0 0 0 0 0 0 0 0 127 0" result="hardAlpha"/>
<feOffset dx="5" dy="5"/>
<feGaussianBlur stdDeviation="5"/>
<feColorMatrix type="matrix" values="0 0 0 0 0.00761719 0 0 0 0 0.00761719 0 0 0 0 0.00761719 0 0 0 0.5 0"/>
<feBlend mode="normal" in2="effect1_backgroundBlur_215_1945" result="effect2_dropShadow_215_1945"/>
<feBlend mode="normal" in="SourceGraphic" in2="effect2_dropShadow_215_1945" result="shape"/>
</filter>
<filter id="filter2_bd_215_1945" x="1.70557" y="74.8214" width="44.2191" height="46.0625" filterUnits="userSpaceOnUse" color-interpolation-filters="sRGB">
<feFlood flood-opacity="0" result="BackgroundImageFix"/>
<feGaussianBlur in="BackgroundImageFix" stdDeviation="7.5"/>
<feComposite in2="SourceAlpha" operator="in" result="effect1_backgroundBlur_215_1945"/>
<feColorMatrix in="SourceAlpha" type="matrix" values="0 0 0 0 0 0 0 0 0 0 0 0 0 0 0 0 0 0 127 0" result="hardAlpha"/>
<feOffset dx="5" dy="5"/>
<feGaussianBlur stdDeviation="5"/>
<feColorMatrix type="matrix" values="0 0 0 0 0.00761719 0 0 0 0 0.00761719 0 0 0 0 0.00761719 0 0 0 0.5 0"/>
<feBlend mode="normal" in2="effect1_backgroundBlur_215_1945" result="effect2_dropShadow_215_1945"/>
<feBlend mode="normal" in="SourceGraphic" in2="effect2_dropShadow_215_1945" result="shape"/>
</filter>
<linearGradient id="paint0_linear_215_1945" x1="0" y1="20.9951" x2="323.845" y2="28.1742" gradientUnits="userSpaceOnUse">
<stop stop-color="#5484FF"/>
<stop offset="1" stop-color="#0CC3CF"/>
</linearGradient>
<linearGradient id="paint1_linear_215_1945" x1="274" y1="237.978" x2="314.864" y2="238.881" gradientUnits="userSpaceOnUse">
<stop stop-color="#5484FF"/>
<stop offset="1" stop-color="#0CC3CF"/>
</linearGradient>
<linearGradient id="paint2_linear_215_1945" x1="289" y1="246.31" x2="300.072" y2="246.421" gradientUnits="userSpaceOnUse">
<stop stop-color="#5484FF"/>
<stop offset="1" stop-color="#0CC3CF"/>
</linearGradient>
<linearGradient id="paint3_linear_215_1945" x1="2" y1="237.978" x2="42.8639" y2="238.881" gradientUnits="userSpaceOnUse">
<stop stop-color="#5484FF"/>
<stop offset="1" stop-color="#0CC3CF"/>
</linearGradient>
<linearGradient id="paint4_linear_215_1945" x1="17" y1="246.31" x2="28.0716" y2="246.421" gradientUnits="userSpaceOnUse">
<stop stop-color="#5484FF"/>
<stop offset="1" stop-color="#0CC3CF"/>
</linearGradient>
<linearGradient id="paint5_linear_215_1945" x1="138" y1="0.996826" x2="178.864" y2="1.89977" gradientUnits="userSpaceOnUse">
<stop stop-color="#5484FF"/>
<stop offset="1" stop-color="#0CC3CF"/>
</linearGradient>
<linearGradient id="paint6_linear_215_1945" x1="153" y1="9.32947" x2="164.072" y2="9.4399" gradientUnits="userSpaceOnUse">
<stop stop-color="#5484FF"/>
<stop offset="1" stop-color="#0CC3CF"/>
</linearGradient>
</defs>
</svg>
