<svg width="556" height="399" viewBox="0 0 556 399" fill="none" xmlns="http://www.w3.org/2000/svg">
<g filter="url(#filter0_bd_19_4298)">
<path d="M372.839 126.709L378.732 136.969L380.299 130.916C380.501 130.198 381.24 129.807 381.981 130.027C382.706 130.254 383.152 131.029 382.965 131.739L380.567 140.949C380.386 141.634 379.6 142.05 378.9 141.83L369.505 138.858C368.78 138.63 368.335 137.855 368.522 137.145C368.627 136.794 368.854 136.506 369.151 136.349C369.449 136.191 369.838 136.154 370.188 136.263L376.373 138.216L370.481 127.957C370.091 127.278 370.304 126.47 370.964 126.121C371.609 125.78 372.45 126.031 372.839 126.709Z" fill="#268EEC"/>
<path d="M378.29 137.203L378.915 138.291L379.224 137.097L380.789 131.05C380.919 130.6 381.371 130.361 381.837 130.496C382.301 130.644 382.593 131.154 382.473 131.609L382.473 131.61L380.075 140.819C380.075 140.819 380.075 140.819 380.075 140.819C379.966 141.233 379.471 141.494 379.048 141.362C379.048 141.362 379.048 141.362 379.048 141.362L369.654 138.39L369.653 138.389C369.19 138.244 368.897 137.737 369.011 137.283C369.086 137.043 369.235 136.87 369.4 136.782C369.576 136.689 369.821 136.663 370.04 136.732C370.04 136.732 370.04 136.732 370.04 136.732L376.225 138.685L377.439 139.068L376.815 137.983L370.923 127.723C370.66 127.265 370.816 126.765 371.213 126.555C371.598 126.351 372.136 126.489 372.397 126.943L378.29 137.203Z" stroke="#268EEC"/>
</g>
<g filter="url(#filter1_bd_19_4298)">
<path d="M250.783 377.335L238.951 377.314L243.453 381.696C243.979 382.23 243.957 383.066 243.402 383.598C242.847 384.113 241.953 384.112 241.427 383.595L234.583 376.916C234.074 376.417 234.099 375.528 234.634 375.031L241.84 368.376C242.394 367.861 243.288 367.863 243.815 368.379C244.068 368.646 244.208 368.986 244.199 369.322C244.19 369.66 244.031 370.015 243.764 370.264L239.023 374.647L250.856 374.668C251.638 374.669 252.237 375.257 252.217 376.004C252.197 376.733 251.566 377.336 250.783 377.335Z" fill="#268EEC"/>
</g>
<g filter="url(#filter2_bd_19_4298)">
<path d="M102.656 142.819L108.436 132.496L102.393 134.333C101.668 134.536 100.945 134.117 100.747 133.378C100.565 132.648 101.002 131.867 101.712 131.654L110.914 128.872C111.599 128.666 112.369 129.112 112.545 129.817L114.883 139.293C115.065 140.023 114.629 140.803 113.918 141.016C113.56 141.11 113.193 141.069 112.903 140.901C112.61 140.731 112.375 140.423 112.287 140.07L110.744 133.834L104.964 144.158C104.582 144.841 103.773 145.083 103.127 144.708C102.496 144.342 102.274 143.502 102.656 142.819Z" fill="#268EEC"/>
</g>
<rect x="84.5" y="60.4951" width="316" height="314.974" rx="157.487" stroke="url(#paint0_linear_19_4298)" stroke-opacity="0.2"/>
<path d="M419.12 303.977C418.987 303.977 418.873 303.93 418.78 303.837C418.687 303.744 418.64 303.63 418.64 303.497V292.437H414.94C414.807 292.437 414.693 292.39 414.6 292.297C414.507 292.204 414.46 292.09 414.46 291.957V290.477C414.46 290.33 414.507 290.21 414.6 290.117C414.693 290.024 414.807 289.977 414.94 289.977H425.14C425.287 289.977 425.407 290.024 425.5 290.117C425.593 290.21 425.64 290.33 425.64 290.477V291.957C425.64 292.09 425.593 292.204 425.5 292.297C425.407 292.39 425.287 292.437 425.14 292.437H421.46V303.497C421.46 303.63 421.413 303.744 421.32 303.837C421.227 303.93 421.107 303.977 420.96 303.977H419.12ZM426.581 303.977C426.448 303.977 426.335 303.93 426.241 303.837C426.148 303.744 426.101 303.63 426.101 303.497V294.077C426.101 293.93 426.148 293.81 426.241 293.717C426.335 293.624 426.448 293.577 426.581 293.577H428.201C428.335 293.577 428.448 293.624 428.541 293.717C428.648 293.81 428.701 293.93 428.701 294.077V294.897C429.008 294.47 429.401 294.144 429.881 293.917C430.375 293.69 430.941 293.577 431.581 293.577H432.401C432.548 293.577 432.661 293.624 432.741 293.717C432.835 293.81 432.881 293.924 432.881 294.057V295.497C432.881 295.63 432.835 295.744 432.741 295.837C432.661 295.93 432.548 295.977 432.401 295.977H430.841C430.201 295.977 429.701 296.157 429.341 296.517C428.995 296.877 428.821 297.37 428.821 297.997V303.497C428.821 303.63 428.775 303.744 428.681 303.837C428.588 303.93 428.468 303.977 428.321 303.977H426.581ZM437.305 304.177C436.612 304.177 435.985 304.044 435.425 303.777C434.865 303.497 434.418 303.13 434.085 302.677C433.765 302.21 433.605 301.69 433.605 301.117C433.605 300.184 433.978 299.444 434.725 298.897C435.485 298.337 436.485 297.964 437.725 297.777L440.465 297.377V296.957C440.465 296.397 440.325 295.964 440.045 295.657C439.765 295.35 439.285 295.197 438.605 295.197C438.125 295.197 437.732 295.297 437.425 295.497C437.132 295.684 436.912 295.937 436.765 296.257C436.658 296.43 436.505 296.517 436.305 296.517H434.725C434.578 296.517 434.465 296.477 434.385 296.397C434.318 296.317 434.285 296.21 434.285 296.077C434.298 295.864 434.385 295.604 434.545 295.297C434.705 294.99 434.958 294.697 435.305 294.417C435.652 294.124 436.098 293.877 436.645 293.677C437.192 293.477 437.852 293.377 438.625 293.377C439.465 293.377 440.172 293.484 440.745 293.697C441.332 293.897 441.798 294.17 442.145 294.517C442.492 294.864 442.745 295.27 442.905 295.737C443.065 296.204 443.145 296.697 443.145 297.217V303.497C443.145 303.63 443.098 303.744 443.005 303.837C442.912 303.93 442.798 303.977 442.665 303.977H441.045C440.898 303.977 440.778 303.93 440.685 303.837C440.605 303.744 440.565 303.63 440.565 303.497V302.717C440.392 302.97 440.158 303.21 439.865 303.437C439.572 303.65 439.212 303.83 438.785 303.977C438.372 304.11 437.878 304.177 437.305 304.177ZM437.985 302.277C438.452 302.277 438.872 302.177 439.245 301.977C439.632 301.777 439.932 301.47 440.145 301.057C440.372 300.63 440.485 300.097 440.485 299.457V299.037L438.485 299.357C437.698 299.477 437.112 299.67 436.725 299.937C436.338 300.204 436.145 300.53 436.145 300.917C436.145 301.21 436.232 301.464 436.405 301.677C436.592 301.877 436.825 302.03 437.105 302.137C437.385 302.23 437.678 302.277 437.985 302.277ZM450.211 304.177C449.251 304.177 448.404 303.997 447.671 303.637C446.951 303.277 446.384 302.757 445.971 302.077C445.571 301.384 445.351 300.55 445.311 299.577C445.297 299.377 445.291 299.117 445.291 298.797C445.291 298.464 445.297 298.19 445.311 297.977C445.351 297.004 445.571 296.177 445.971 295.497C446.384 294.804 446.951 294.277 447.671 293.917C448.404 293.557 449.251 293.377 450.211 293.377C451.064 293.377 451.791 293.497 452.391 293.737C452.991 293.977 453.484 294.277 453.871 294.637C454.257 294.997 454.544 295.377 454.731 295.777C454.931 296.164 455.037 296.517 455.051 296.837C455.064 296.984 455.017 297.104 454.911 297.197C454.817 297.277 454.704 297.317 454.571 297.317H452.811C452.677 297.317 452.571 297.284 452.491 297.217C452.424 297.15 452.357 297.05 452.291 296.917C452.091 296.384 451.824 296.01 451.491 295.797C451.171 295.57 450.757 295.457 450.251 295.457C449.584 295.457 449.051 295.67 448.651 296.097C448.264 296.51 448.057 297.17 448.031 298.077C448.004 298.584 448.004 299.05 448.031 299.477C448.057 300.397 448.264 301.064 448.651 301.477C449.051 301.89 449.584 302.097 450.251 302.097C450.771 302.097 451.191 301.99 451.511 301.777C451.831 301.55 452.091 301.17 452.291 300.637C452.357 300.504 452.424 300.404 452.491 300.337C452.571 300.27 452.677 300.237 452.811 300.237H454.571C454.704 300.237 454.817 300.284 454.911 300.377C455.017 300.457 455.064 300.57 455.051 300.717C455.037 300.957 454.971 301.23 454.851 301.537C454.744 301.83 454.564 302.137 454.311 302.457C454.071 302.764 453.764 303.05 453.391 303.317C453.017 303.57 452.564 303.777 452.031 303.937C451.511 304.097 450.904 304.177 450.211 304.177ZM457.636 303.977C457.503 303.977 457.39 303.93 457.296 303.837C457.203 303.744 457.156 303.63 457.156 303.497V290.257C457.156 290.124 457.203 290.01 457.296 289.917C457.39 289.824 457.503 289.777 457.636 289.777H459.256C459.403 289.777 459.516 289.824 459.596 289.917C459.69 290.01 459.736 290.124 459.736 290.257V297.097L463.096 293.917C463.216 293.81 463.323 293.73 463.416 293.677C463.51 293.61 463.65 293.577 463.836 293.577H465.696C465.83 293.577 465.936 293.617 466.016 293.697C466.096 293.777 466.136 293.884 466.136 294.017C466.136 294.07 466.123 294.13 466.096 294.197C466.07 294.264 466.016 294.324 465.936 294.377L461.816 298.237L466.436 303.197C466.57 303.33 466.636 303.444 466.636 303.537C466.636 303.67 466.59 303.777 466.496 303.857C466.416 303.937 466.316 303.977 466.196 303.977H464.296C464.096 303.977 463.95 303.95 463.856 303.897C463.776 303.83 463.676 303.744 463.556 303.637L459.736 299.617V303.497C459.736 303.63 459.69 303.744 459.596 303.837C459.516 303.93 459.403 303.977 459.256 303.977H457.636ZM468.613 303.977C468.479 303.977 468.366 303.93 468.273 303.837C468.179 303.744 468.132 303.63 468.132 303.497V294.057C468.132 293.924 468.179 293.81 468.273 293.717C468.366 293.624 468.479 293.577 468.613 293.577H470.273C470.419 293.577 470.533 293.624 470.613 293.717C470.706 293.81 470.753 293.924 470.753 294.057V303.497C470.753 303.63 470.706 303.744 470.613 303.837C470.533 303.93 470.419 303.977 470.273 303.977H468.613ZM468.533 291.857C468.386 291.857 468.266 291.817 468.173 291.737C468.093 291.644 468.053 291.524 468.053 291.377V289.937C468.053 289.804 468.093 289.69 468.173 289.597C468.266 289.504 468.386 289.457 468.533 289.457H470.353C470.499 289.457 470.619 289.504 470.713 289.597C470.806 289.69 470.853 289.804 470.853 289.937V291.377C470.853 291.524 470.806 291.644 470.713 291.737C470.619 291.817 470.499 291.857 470.353 291.857H468.533ZM474.296 303.977C474.163 303.977 474.049 303.93 473.956 303.837C473.863 303.744 473.816 303.63 473.816 303.497V294.057C473.816 293.924 473.863 293.81 473.956 293.717C474.049 293.624 474.163 293.577 474.296 293.577H475.936C476.069 293.577 476.183 293.624 476.276 293.717C476.369 293.81 476.416 293.924 476.416 294.057V294.877C476.763 294.45 477.203 294.097 477.736 293.817C478.283 293.524 478.956 293.377 479.756 293.377C480.569 293.377 481.276 293.564 481.876 293.937C482.476 294.297 482.936 294.81 483.256 295.477C483.589 296.144 483.756 296.944 483.756 297.877V303.497C483.756 303.63 483.709 303.744 483.616 303.837C483.523 303.93 483.409 303.977 483.276 303.977H481.516C481.383 303.977 481.269 303.93 481.176 303.837C481.083 303.744 481.036 303.63 481.036 303.497V297.997C481.036 297.224 480.843 296.617 480.456 296.177C480.083 295.737 479.536 295.517 478.816 295.517C478.123 295.517 477.569 295.737 477.156 296.177C476.743 296.617 476.536 297.224 476.536 297.997V303.497C476.536 303.63 476.489 303.744 476.396 303.837C476.303 303.93 476.189 303.977 476.056 303.977H474.296ZM490.997 308.377C490.023 308.377 489.223 308.25 488.597 307.997C487.97 307.744 487.477 307.437 487.117 307.077C486.757 306.717 486.497 306.357 486.337 305.997C486.19 305.65 486.11 305.377 486.097 305.177C486.083 305.044 486.123 304.924 486.217 304.817C486.323 304.724 486.443 304.677 486.577 304.677H488.317C488.45 304.677 488.557 304.704 488.637 304.757C488.717 304.824 488.783 304.937 488.837 305.097C488.917 305.27 489.023 305.457 489.157 305.657C489.29 305.857 489.49 306.024 489.757 306.157C490.037 306.304 490.417 306.377 490.897 306.377C491.403 306.377 491.83 306.304 492.177 306.157C492.523 306.01 492.783 305.764 492.957 305.417C493.143 305.07 493.237 304.59 493.237 303.977V302.617C492.917 303.004 492.503 303.317 491.997 303.557C491.503 303.797 490.89 303.917 490.157 303.917C489.437 303.917 488.817 303.804 488.297 303.577C487.777 303.337 487.343 303.01 486.997 302.597C486.65 302.17 486.383 301.67 486.197 301.097C486.023 300.524 485.923 299.89 485.897 299.197C485.883 298.837 485.883 298.477 485.897 298.117C485.923 297.45 486.023 296.83 486.197 296.257C486.37 295.684 486.63 295.184 486.977 294.757C487.337 294.317 487.777 293.977 488.297 293.737C488.817 293.497 489.437 293.377 490.157 293.377C490.917 293.377 491.557 293.524 492.077 293.817C492.597 294.097 493.023 294.45 493.357 294.877V294.077C493.357 293.93 493.403 293.81 493.497 293.717C493.59 293.624 493.703 293.577 493.837 293.577H495.457C495.59 293.577 495.703 293.624 495.797 293.717C495.89 293.81 495.937 293.93 495.937 294.077L495.957 303.717C495.957 304.677 495.777 305.504 495.417 306.197C495.057 306.89 494.51 307.424 493.777 307.797C493.057 308.184 492.13 308.377 490.997 308.377ZM490.897 301.797C491.443 301.797 491.883 301.677 492.217 301.437C492.55 301.197 492.797 300.884 492.957 300.497C493.117 300.11 493.21 299.717 493.237 299.317C493.25 299.144 493.257 298.924 493.257 298.657C493.257 298.39 493.25 298.177 493.237 298.017C493.21 297.604 493.117 297.21 492.957 296.837C492.797 296.45 492.55 296.137 492.217 295.897C491.883 295.644 491.443 295.517 490.897 295.517C490.35 295.517 489.91 295.644 489.577 295.897C489.243 296.137 489.003 296.457 488.857 296.857C488.723 297.257 488.643 297.697 488.617 298.177C488.59 298.497 488.59 298.824 488.617 299.157C488.643 299.624 488.723 300.064 488.857 300.477C489.003 300.877 489.243 301.197 489.577 301.437C489.91 301.677 490.35 301.797 490.897 301.797Z" fill="white"/>
<path d="M7.8482 304.177C6.66154 304.177 5.64154 303.984 4.7882 303.597C3.93487 303.197 3.2682 302.59 2.7882 301.777C2.3082 300.95 2.0482 299.924 2.0082 298.697C1.99487 298.124 1.9882 297.557 1.9882 296.997C1.9882 296.437 1.99487 295.864 2.0082 295.277C2.0482 294.064 2.31487 293.05 2.8082 292.237C3.30154 291.424 3.97487 290.81 4.8282 290.397C5.69487 289.984 6.70154 289.777 7.8482 289.777C8.99487 289.777 10.0015 289.984 10.8682 290.397C11.7349 290.81 12.4149 291.424 12.9082 292.237C13.4015 293.05 13.6682 294.064 13.7082 295.277C13.7349 295.864 13.7482 296.437 13.7482 296.997C13.7482 297.557 13.7349 298.124 13.7082 298.697C13.6682 299.924 13.4082 300.95 12.9282 301.777C12.4482 302.59 11.7749 303.197 10.9082 303.597C10.0549 303.984 9.03487 304.177 7.8482 304.177ZM7.8482 301.877C8.71487 301.877 9.42154 301.624 9.9682 301.117C10.5149 300.597 10.8082 299.757 10.8482 298.597C10.8749 298.01 10.8882 297.47 10.8882 296.977C10.8882 296.47 10.8749 295.93 10.8482 295.357C10.8215 294.584 10.6749 293.957 10.4082 293.477C10.1549 292.984 9.8082 292.63 9.3682 292.417C8.9282 292.19 8.42154 292.077 7.8482 292.077C7.2882 292.077 6.7882 292.19 6.3482 292.417C5.9082 292.63 5.55487 292.984 5.2882 293.477C5.03487 293.957 4.89487 294.584 4.8682 295.357C4.85487 295.93 4.8482 296.47 4.8482 296.977C4.8482 297.47 4.85487 298.01 4.8682 298.597C4.9082 299.757 5.20154 300.597 5.7482 301.117C6.29487 301.624 6.99487 301.877 7.8482 301.877ZM19.9945 304.177C19.1811 304.177 18.4745 303.997 17.8745 303.637C17.2878 303.264 16.8345 302.744 16.5145 302.077C16.1945 301.397 16.0345 300.597 16.0345 299.677V294.057C16.0345 293.924 16.0811 293.81 16.1745 293.717C16.2678 293.624 16.3811 293.577 16.5145 293.577H18.2745C18.4211 293.577 18.5345 293.624 18.6145 293.717C18.7078 293.81 18.7545 293.924 18.7545 294.057V299.557C18.7545 301.21 19.4811 302.037 20.9345 302.037C21.6278 302.037 22.1745 301.817 22.5745 301.377C22.9878 300.937 23.1945 300.33 23.1945 299.557V294.057C23.1945 293.924 23.2411 293.81 23.3345 293.717C23.4278 293.624 23.5411 293.577 23.6745 293.577H25.4345C25.5678 293.577 25.6811 293.624 25.7745 293.717C25.8678 293.81 25.9145 293.924 25.9145 294.057V303.497C25.9145 303.63 25.8678 303.744 25.7745 303.837C25.6811 303.93 25.5678 303.977 25.4345 303.977H23.8145C23.6678 303.977 23.5478 303.93 23.4545 303.837C23.3745 303.744 23.3345 303.63 23.3345 303.497V302.677C22.9745 303.144 22.5278 303.51 21.9945 303.777C21.4611 304.044 20.7945 304.177 19.9945 304.177ZM33.2563 303.977C32.4563 303.977 31.783 303.837 31.2363 303.557C30.6897 303.277 30.283 302.864 30.0163 302.317C29.7497 301.757 29.6163 301.064 29.6163 300.237V295.697H28.0363C27.903 295.697 27.7897 295.65 27.6963 295.557C27.603 295.464 27.5563 295.35 27.5563 295.217V294.057C27.5563 293.924 27.603 293.81 27.6963 293.717C27.7897 293.624 27.903 293.577 28.0363 293.577H29.6163V290.257C29.6163 290.124 29.6563 290.01 29.7363 289.917C29.8297 289.824 29.9497 289.777 30.0963 289.777H31.7163C31.8497 289.777 31.963 289.824 32.0563 289.917C32.1497 290.01 32.1963 290.124 32.1963 290.257V293.577H34.6963C34.8297 293.577 34.943 293.624 35.0363 293.717C35.1297 293.81 35.1763 293.924 35.1763 294.057V295.217C35.1763 295.35 35.1297 295.464 35.0363 295.557C34.943 295.65 34.8297 295.697 34.6963 295.697H32.1963V300.037C32.1963 300.584 32.2897 301.01 32.4763 301.317C32.6763 301.624 33.0163 301.777 33.4963 301.777H34.8763C35.0097 301.777 35.123 301.824 35.2163 301.917C35.3097 302.01 35.3563 302.124 35.3563 302.257V303.497C35.3563 303.63 35.3097 303.744 35.2163 303.837C35.123 303.93 35.0097 303.977 34.8763 303.977H33.2563ZM37.6305 307.777C37.4972 307.777 37.3839 307.73 37.2905 307.637C37.1972 307.544 37.1505 307.43 37.1505 307.297V294.057C37.1505 293.924 37.1972 293.81 37.2905 293.717C37.3839 293.624 37.4972 293.577 37.6305 293.577H39.2105C39.3572 293.577 39.4705 293.624 39.5505 293.717C39.6439 293.81 39.6905 293.924 39.6905 294.057V294.857C40.0105 294.43 40.4305 294.077 40.9505 293.797C41.4705 293.517 42.1172 293.377 42.8905 293.377C43.5972 293.377 44.2105 293.49 44.7305 293.717C45.2505 293.944 45.6839 294.27 46.0305 294.697C46.3772 295.11 46.6439 295.604 46.8305 296.177C47.0172 296.75 47.1239 297.384 47.1505 298.077C47.1639 298.304 47.1705 298.537 47.1705 298.777C47.1705 299.017 47.1639 299.257 47.1505 299.497C47.1372 300.164 47.0372 300.784 46.8505 301.357C46.6639 301.917 46.3905 302.41 46.0305 302.837C45.6839 303.25 45.2505 303.577 44.7305 303.817C44.2105 304.057 43.5972 304.177 42.8905 304.177C42.1705 304.177 41.5572 304.05 41.0505 303.797C40.5439 303.53 40.1305 303.184 39.8105 302.757V307.297C39.8105 307.43 39.7639 307.544 39.6705 307.637C39.5905 307.73 39.4772 307.777 39.3305 307.777H37.6305ZM42.1505 302.037C42.7239 302.037 43.1705 301.917 43.4905 301.677C43.8105 301.424 44.0372 301.097 44.1705 300.697C44.3172 300.297 44.4039 299.857 44.4305 299.377C44.4572 298.977 44.4572 298.577 44.4305 298.177C44.4039 297.697 44.3172 297.257 44.1705 296.857C44.0372 296.457 43.8105 296.137 43.4905 295.897C43.1705 295.644 42.7239 295.517 42.1505 295.517C41.6039 295.517 41.1572 295.644 40.8105 295.897C40.4772 296.15 40.2305 296.477 40.0705 296.877C39.9239 297.264 39.8372 297.664 39.8105 298.077C39.7972 298.317 39.7905 298.57 39.7905 298.837C39.7905 299.104 39.7972 299.364 39.8105 299.617C39.8239 300.017 39.9172 300.404 40.0905 300.777C40.2639 301.137 40.5172 301.437 40.8505 301.677C41.1839 301.917 41.6172 302.037 42.1505 302.037ZM53.2757 304.177C52.4624 304.177 51.7557 303.997 51.1557 303.637C50.569 303.264 50.1157 302.744 49.7957 302.077C49.4757 301.397 49.3157 300.597 49.3157 299.677V294.057C49.3157 293.924 49.3624 293.81 49.4557 293.717C49.549 293.624 49.6624 293.577 49.7957 293.577H51.5557C51.7024 293.577 51.8157 293.624 51.8957 293.717C51.989 293.81 52.0357 293.924 52.0357 294.057V299.557C52.0357 301.21 52.7624 302.037 54.2157 302.037C54.909 302.037 55.4557 301.817 55.8557 301.377C56.269 300.937 56.4757 300.33 56.4757 299.557V294.057C56.4757 293.924 56.5224 293.81 56.6157 293.717C56.709 293.624 56.8224 293.577 56.9557 293.577H58.7157C58.849 293.577 58.9624 293.624 59.0557 293.717C59.149 293.81 59.1957 293.924 59.1957 294.057V303.497C59.1957 303.63 59.149 303.744 59.0557 303.837C58.9624 303.93 58.849 303.977 58.7157 303.977H57.0957C56.949 303.977 56.829 303.93 56.7357 303.837C56.6557 303.744 56.6157 303.63 56.6157 303.497V302.677C56.2557 303.144 55.809 303.51 55.2757 303.777C54.7424 304.044 54.0757 304.177 53.2757 304.177ZM66.5376 303.977C65.7376 303.977 65.0642 303.837 64.5176 303.557C63.9709 303.277 63.5642 302.864 63.2976 302.317C63.0309 301.757 62.8976 301.064 62.8976 300.237V295.697H61.3176C61.1842 295.697 61.0709 295.65 60.9776 295.557C60.8842 295.464 60.8376 295.35 60.8376 295.217V294.057C60.8376 293.924 60.8842 293.81 60.9776 293.717C61.0709 293.624 61.1842 293.577 61.3176 293.577H62.8976V290.257C62.8976 290.124 62.9376 290.01 63.0176 289.917C63.1109 289.824 63.2309 289.777 63.3776 289.777H64.9976C65.1309 289.777 65.2442 289.824 65.3376 289.917C65.4309 290.01 65.4776 290.124 65.4776 290.257V293.577H67.9776C68.1109 293.577 68.2242 293.624 68.3176 293.717C68.4109 293.81 68.4576 293.924 68.4576 294.057V295.217C68.4576 295.35 68.4109 295.464 68.3176 295.557C68.2242 295.65 68.1109 295.697 67.9776 295.697H65.4776V300.037C65.4776 300.584 65.5709 301.01 65.7576 301.317C65.9576 301.624 66.2976 301.777 66.7776 301.777H68.1576C68.2909 301.777 68.4042 301.824 68.4976 301.917C68.5909 302.01 68.6376 302.124 68.6376 302.257V303.497C68.6376 303.63 68.5909 303.744 68.4976 303.837C68.4042 303.93 68.2909 303.977 68.1576 303.977H66.5376Z" fill="white"/>
<rect x="358.5" y="277.478" width="39" height="39" rx="19.5" fill="#20222C" stroke="url(#paint1_linear_19_4298)"/>
<path d="M373.988 304.31C373.854 304.31 373.741 304.27 373.648 304.19C373.568 304.097 373.528 303.984 373.528 303.85V303.21C373.528 303.09 373.561 302.957 373.628 302.81C373.694 302.664 373.828 302.504 374.028 302.33L378.268 298.09C378.948 297.517 379.481 297.03 379.868 296.63C380.268 296.217 380.548 295.824 380.708 295.45C380.881 295.077 380.968 294.69 380.968 294.29C380.968 293.53 380.754 292.93 380.328 292.49C379.901 292.037 379.268 291.81 378.428 291.81C377.894 291.81 377.434 291.924 377.048 292.15C376.661 292.364 376.354 292.664 376.128 293.05C375.914 293.424 375.774 293.85 375.708 294.33C375.681 294.504 375.608 294.624 375.488 294.69C375.381 294.757 375.281 294.79 375.188 294.79H374.148C374.028 294.79 373.928 294.757 373.848 294.69C373.768 294.61 373.728 294.517 373.728 294.41C373.741 293.904 373.848 293.397 374.048 292.89C374.248 292.37 374.541 291.904 374.928 291.49C375.328 291.077 375.814 290.744 376.388 290.49C376.974 290.224 377.654 290.09 378.428 290.09C379.481 290.09 380.341 290.284 381.008 290.67C381.688 291.044 382.188 291.544 382.508 292.17C382.828 292.797 382.988 293.484 382.988 294.23C382.988 294.817 382.888 295.357 382.688 295.85C382.488 296.33 382.194 296.804 381.808 297.27C381.434 297.724 380.968 298.19 380.408 298.67L376.568 302.57H382.808C382.954 302.57 383.068 302.61 383.148 302.69C383.241 302.77 383.288 302.884 383.288 303.03V303.85C383.288 303.984 383.241 304.097 383.148 304.19C383.068 304.27 382.954 304.31 382.808 304.31H373.988Z" fill="url(#paint2_linear_19_4298)"/>
<rect x="86.5" y="277.478" width="39" height="39" rx="19.5" fill="#20222C" stroke="url(#paint3_linear_19_4298)"/>
<path d="M106.371 304.51C105.531 304.51 104.797 304.41 104.171 304.21C103.544 303.997 103.017 303.717 102.591 303.37C102.164 303.024 101.837 302.644 101.611 302.23C101.397 301.817 101.284 301.39 101.271 300.95C101.271 300.83 101.311 300.737 101.391 300.67C101.471 300.604 101.571 300.57 101.691 300.57H102.671C102.791 300.57 102.897 300.597 102.991 300.65C103.084 300.704 103.164 300.817 103.231 300.99C103.364 301.47 103.591 301.844 103.911 302.11C104.244 302.377 104.624 302.564 105.051 302.67C105.491 302.764 105.931 302.81 106.371 302.81C107.291 302.81 108.037 302.59 108.611 302.15C109.184 301.71 109.471 301.064 109.471 300.21C109.471 299.344 109.211 298.724 108.691 298.35C108.171 297.977 107.451 297.79 106.531 297.79H104.631C104.497 297.79 104.384 297.75 104.291 297.67C104.211 297.59 104.171 297.477 104.171 297.33V296.79C104.171 296.67 104.191 296.57 104.231 296.49C104.284 296.397 104.337 296.317 104.391 296.25L108.271 292.01H102.371C102.237 292.01 102.124 291.97 102.031 291.89C101.951 291.81 101.911 291.697 101.911 291.55V290.79C101.911 290.644 101.951 290.53 102.031 290.45C102.124 290.357 102.237 290.31 102.371 290.31H110.351C110.497 290.31 110.611 290.357 110.691 290.45C110.784 290.53 110.831 290.644 110.831 290.79V291.51C110.831 291.604 110.804 291.69 110.751 291.77C110.711 291.837 110.664 291.904 110.611 291.97L106.751 296.27L107.071 296.29C107.951 296.317 108.717 296.477 109.371 296.77C110.037 297.064 110.551 297.504 110.911 298.09C111.284 298.664 111.471 299.39 111.471 300.27C111.471 301.164 111.251 301.93 110.811 302.57C110.371 303.197 109.764 303.677 108.991 304.01C108.217 304.344 107.344 304.51 106.371 304.51Z" fill="url(#paint4_linear_19_4298)"/>
<rect x="222.5" y="40.4968" width="39" height="39" rx="19.5" fill="#20222C" stroke="url(#paint5_linear_19_4298)"/>
<path d="M243.659 67.3295C243.526 67.3295 243.413 67.2895 243.319 67.2095C243.239 67.1161 243.199 67.0028 243.199 66.8695V55.6695L239.879 58.2295C239.773 58.3095 239.659 58.3428 239.539 58.3295C239.419 58.3161 239.319 58.2561 239.239 58.1495L238.719 57.4895C238.639 57.3695 238.606 57.2495 238.619 57.1295C238.646 57.0095 238.713 56.9095 238.819 56.8295L243.179 53.4695C243.273 53.4028 243.359 53.3628 243.439 53.3495C243.519 53.3361 243.606 53.3295 243.699 53.3295H244.719C244.853 53.3295 244.959 53.3761 245.039 53.4695C245.119 53.5495 245.159 53.6561 245.159 53.7895V66.8695C245.159 67.0028 245.119 67.1161 245.039 67.2095C244.959 67.2895 244.853 67.3295 244.719 67.3295H243.659Z" fill="url(#paint6_linear_19_4298)"/>
<path d="M189.286 19C189.153 19 189.039 18.9533 188.946 18.86C188.853 18.7667 188.806 18.6533 188.806 18.52V5.48C188.806 5.34667 188.853 5.23333 188.946 5.14C189.039 5.04667 189.153 5 189.286 5H191.166C191.313 5 191.426 5.04667 191.506 5.14C191.599 5.23333 191.646 5.34667 191.646 5.48V18.52C191.646 18.6533 191.599 18.7667 191.506 18.86C191.426 18.9533 191.313 19 191.166 19H189.286ZM195.023 19C194.889 19 194.776 18.9533 194.683 18.86C194.589 18.7667 194.543 18.6533 194.543 18.52V9.08C194.543 8.94667 194.589 8.83333 194.683 8.74C194.776 8.64667 194.889 8.6 195.023 8.6H196.663C196.796 8.6 196.909 8.64667 197.003 8.74C197.096 8.83333 197.143 8.94667 197.143 9.08V9.9C197.489 9.47333 197.929 9.12 198.463 8.84C199.009 8.54667 199.683 8.4 200.483 8.4C201.296 8.4 202.003 8.58667 202.603 8.96C203.203 9.32 203.663 9.83333 203.983 10.5C204.316 11.1667 204.483 11.9667 204.483 12.9V18.52C204.483 18.6533 204.436 18.7667 204.343 18.86C204.249 18.9533 204.136 19 204.003 19H202.243C202.109 19 201.996 18.9533 201.903 18.86C201.809 18.7667 201.763 18.6533 201.763 18.52V13.02C201.763 12.2467 201.569 11.64 201.183 11.2C200.809 10.76 200.263 10.54 199.543 10.54C198.849 10.54 198.296 10.76 197.883 11.2C197.469 11.64 197.263 12.2467 197.263 13.02V18.52C197.263 18.6533 197.216 18.7667 197.123 18.86C197.029 18.9533 196.916 19 196.783 19H195.023ZM210.391 19C210.177 19 210.017 18.9533 209.911 18.86C209.817 18.7533 209.737 18.6333 209.671 18.5L205.931 9.22C205.904 9.15333 205.891 9.09333 205.891 9.04C205.891 8.92 205.931 8.82 206.011 8.74C206.104 8.64667 206.211 8.6 206.331 8.6H207.951C208.111 8.6 208.231 8.64667 208.311 8.74C208.391 8.82 208.444 8.9 208.471 8.98L211.131 16L213.791 8.98C213.817 8.9 213.871 8.82 213.951 8.74C214.031 8.64667 214.151 8.6 214.311 8.6H215.951C216.057 8.6 216.151 8.64667 216.231 8.74C216.324 8.82 216.371 8.92 216.371 9.04C216.371 9.09333 216.364 9.15333 216.351 9.22L212.591 18.5C212.537 18.6333 212.457 18.7533 212.351 18.86C212.244 18.9533 212.084 19 211.871 19H210.391ZM222.304 19.2C220.824 19.2 219.651 18.7733 218.784 17.92C217.917 17.0667 217.451 15.8533 217.384 14.28C217.371 14.1467 217.364 13.98 217.364 13.78C217.364 13.5667 217.371 13.4 217.384 13.28C217.437 12.28 217.664 11.4133 218.064 10.68C218.477 9.94667 219.044 9.38667 219.764 9C220.484 8.6 221.331 8.4 222.304 8.4C223.384 8.4 224.291 8.62667 225.024 9.08C225.757 9.52 226.311 10.14 226.684 10.94C227.057 11.7267 227.244 12.64 227.244 13.68V14.1C227.244 14.2333 227.197 14.3467 227.104 14.44C227.011 14.5333 226.891 14.58 226.744 14.58H220.104C220.104 14.58 220.104 14.6 220.104 14.64C220.104 14.68 220.104 14.7133 220.104 14.74C220.117 15.2067 220.204 15.64 220.364 16.04C220.537 16.4267 220.784 16.74 221.104 16.98C221.437 17.22 221.831 17.34 222.284 17.34C222.657 17.34 222.971 17.2867 223.224 17.18C223.477 17.06 223.684 16.9267 223.844 16.78C224.004 16.6333 224.117 16.5133 224.184 16.42C224.304 16.26 224.397 16.1667 224.464 16.14C224.544 16.1 224.657 16.08 224.804 16.08H226.524C226.657 16.08 226.764 16.12 226.844 16.2C226.937 16.28 226.977 16.38 226.964 16.5C226.951 16.7133 226.837 16.9733 226.624 17.28C226.424 17.5867 226.131 17.8867 225.744 18.18C225.357 18.4733 224.871 18.72 224.284 18.92C223.711 19.1067 223.051 19.2 222.304 19.2ZM220.104 12.9H224.524V12.84C224.524 12.32 224.437 11.8667 224.264 11.48C224.091 11.0933 223.837 10.7867 223.504 10.56C223.171 10.3333 222.771 10.22 222.304 10.22C221.837 10.22 221.437 10.3333 221.104 10.56C220.771 10.7867 220.517 11.0933 220.344 11.48C220.184 11.8667 220.104 12.32 220.104 12.84V12.9ZM233.307 19.2C232.507 19.2 231.82 19.1067 231.247 18.92C230.687 18.7333 230.227 18.5 229.867 18.22C229.507 17.94 229.24 17.66 229.067 17.38C228.894 17.1 228.8 16.8667 228.787 16.68C228.774 16.5333 228.814 16.42 228.907 16.34C229.014 16.2467 229.127 16.2 229.247 16.2H230.827C230.88 16.2 230.927 16.2067 230.967 16.22C231.007 16.2333 231.06 16.2733 231.127 16.34C231.3 16.4867 231.48 16.64 231.667 16.8C231.867 16.96 232.1 17.1 232.367 17.22C232.634 17.3267 232.967 17.38 233.367 17.38C233.887 17.38 234.32 17.28 234.667 17.08C235.027 16.8667 235.207 16.5667 235.207 16.18C235.207 15.9 235.127 15.6733 234.967 15.5C234.82 15.3267 234.54 15.1733 234.127 15.04C233.714 14.8933 233.127 14.74 232.367 14.58C231.62 14.4067 231 14.1867 230.507 13.92C230.014 13.6533 229.647 13.32 229.407 12.92C229.167 12.52 229.047 12.0533 229.047 11.52C229.047 11 229.2 10.5067 229.507 10.04C229.827 9.56 230.294 9.16667 230.907 8.86C231.534 8.55333 232.307 8.4 233.227 8.4C233.947 8.4 234.574 8.49333 235.107 8.68C235.64 8.85333 236.08 9.07333 236.427 9.34C236.787 9.60667 237.06 9.88 237.247 10.16C237.434 10.4267 237.534 10.66 237.547 10.86C237.56 11.0067 237.52 11.1267 237.427 11.22C237.334 11.3 237.227 11.34 237.107 11.34H235.627C235.56 11.34 235.5 11.3267 235.447 11.3C235.394 11.2733 235.34 11.24 235.287 11.2C235.14 11.0667 234.98 10.9267 234.807 10.78C234.634 10.6333 234.42 10.5067 234.167 10.4C233.927 10.28 233.607 10.22 233.207 10.22C232.7 10.22 232.314 10.3333 232.047 10.56C231.78 10.7733 231.647 11.0467 231.647 11.38C231.647 11.6067 231.707 11.8067 231.827 11.98C231.96 12.14 232.22 12.2933 232.607 12.44C232.994 12.5867 233.58 12.74 234.367 12.9C235.26 13.06 235.967 13.3 236.487 13.62C237.02 13.9267 237.394 14.2867 237.607 14.7C237.834 15.1 237.947 15.5467 237.947 16.04C237.947 16.64 237.767 17.18 237.407 17.66C237.06 18.14 236.54 18.52 235.847 18.8C235.167 19.0667 234.32 19.2 233.307 19.2ZM244.672 19C243.872 19 243.199 18.86 242.652 18.58C242.106 18.3 241.699 17.8867 241.432 17.34C241.166 16.78 241.032 16.0867 241.032 15.26V10.72H239.452C239.319 10.72 239.206 10.6733 239.112 10.58C239.019 10.4867 238.972 10.3733 238.972 10.24V9.08C238.972 8.94667 239.019 8.83333 239.112 8.74C239.206 8.64667 239.319 8.6 239.452 8.6H241.032V5.28C241.032 5.14667 241.072 5.03333 241.152 4.94C241.246 4.84667 241.366 4.8 241.512 4.8H243.132C243.266 4.8 243.379 4.84667 243.472 4.94C243.566 5.03333 243.612 5.14667 243.612 5.28V8.6H246.112C246.246 8.6 246.359 8.64667 246.452 8.74C246.546 8.83333 246.592 8.94667 246.592 9.08V10.24C246.592 10.3733 246.546 10.4867 246.452 10.58C246.359 10.6733 246.246 10.72 246.112 10.72H243.612V15.06C243.612 15.6067 243.706 16.0333 243.892 16.34C244.092 16.6467 244.432 16.8 244.912 16.8H246.292C246.426 16.8 246.539 16.8467 246.632 16.94C246.726 17.0333 246.772 17.1467 246.772 17.28V18.52C246.772 18.6533 246.726 18.7667 246.632 18.86C246.539 18.9533 246.426 19 246.292 19H244.672ZM249.027 19C248.893 19 248.78 18.9533 248.687 18.86C248.593 18.7667 248.547 18.6533 248.547 18.52V9.08C248.547 8.94667 248.593 8.83333 248.687 8.74C248.78 8.64667 248.893 8.6 249.027 8.6H250.587C250.72 8.6 250.833 8.64667 250.927 8.74C251.02 8.83333 251.067 8.94667 251.067 9.08V9.76C251.347 9.38667 251.72 9.07333 252.187 8.82C252.667 8.55333 253.233 8.41333 253.887 8.4C255.407 8.37333 256.467 8.96667 257.067 10.18C257.373 9.64667 257.813 9.22 258.387 8.9C258.973 8.56667 259.62 8.4 260.327 8.4C261.02 8.4 261.647 8.56 262.207 8.88C262.78 9.2 263.227 9.68667 263.547 10.34C263.88 10.98 264.047 11.7933 264.047 12.78V18.52C264.047 18.6533 264 18.7667 263.907 18.86C263.813 18.9533 263.7 19 263.567 19H261.927C261.793 19 261.68 18.9533 261.587 18.86C261.493 18.7667 261.447 18.6533 261.447 18.52V12.94C261.447 12.34 261.36 11.8667 261.187 11.52C261.013 11.16 260.78 10.9067 260.487 10.76C260.193 10.6133 259.867 10.54 259.507 10.54C259.213 10.54 258.92 10.6133 258.627 10.76C258.333 10.9067 258.093 11.16 257.907 11.52C257.72 11.8667 257.627 12.34 257.627 12.94V18.52C257.627 18.6533 257.58 18.7667 257.487 18.86C257.393 18.9533 257.28 19 257.147 19H255.507C255.36 19 255.24 18.9533 255.147 18.86C255.067 18.7667 255.027 18.6533 255.027 18.52V12.94C255.027 12.34 254.933 11.8667 254.747 11.52C254.56 11.16 254.32 10.9067 254.027 10.76C253.733 10.6133 253.42 10.54 253.087 10.54C252.78 10.54 252.48 10.62 252.187 10.78C251.893 10.9267 251.653 11.1733 251.467 11.52C251.28 11.8667 251.187 12.34 251.187 12.94V18.52C251.187 18.6533 251.14 18.7667 251.047 18.86C250.953 18.9533 250.84 19 250.707 19H249.027ZM271.073 19.2C269.593 19.2 268.42 18.7733 267.553 17.92C266.687 17.0667 266.22 15.8533 266.153 14.28C266.14 14.1467 266.133 13.98 266.133 13.78C266.133 13.5667 266.14 13.4 266.153 13.28C266.207 12.28 266.433 11.4133 266.833 10.68C267.247 9.94667 267.813 9.38667 268.533 9C269.253 8.6 270.1 8.4 271.073 8.4C272.153 8.4 273.06 8.62667 273.793 9.08C274.527 9.52 275.08 10.14 275.453 10.94C275.827 11.7267 276.013 12.64 276.013 13.68V14.1C276.013 14.2333 275.967 14.3467 275.873 14.44C275.78 14.5333 275.66 14.58 275.513 14.58H268.873C268.873 14.58 268.873 14.6 268.873 14.64C268.873 14.68 268.873 14.7133 268.873 14.74C268.887 15.2067 268.973 15.64 269.133 16.04C269.307 16.4267 269.553 16.74 269.873 16.98C270.207 17.22 270.6 17.34 271.053 17.34C271.427 17.34 271.74 17.2867 271.993 17.18C272.247 17.06 272.453 16.9267 272.613 16.78C272.773 16.6333 272.887 16.5133 272.953 16.42C273.073 16.26 273.167 16.1667 273.233 16.14C273.313 16.1 273.427 16.08 273.573 16.08H275.293C275.427 16.08 275.533 16.12 275.613 16.2C275.707 16.28 275.747 16.38 275.733 16.5C275.72 16.7133 275.607 16.9733 275.393 17.28C275.193 17.5867 274.9 17.8867 274.513 18.18C274.127 18.4733 273.64 18.72 273.053 18.92C272.48 19.1067 271.82 19.2 271.073 19.2ZM268.873 12.9H273.293V12.84C273.293 12.32 273.207 11.8667 273.033 11.48C272.86 11.0933 272.607 10.7867 272.273 10.56C271.94 10.3333 271.54 10.22 271.073 10.22C270.607 10.22 270.207 10.3333 269.873 10.56C269.54 10.7867 269.287 11.0933 269.113 11.48C268.953 11.8667 268.873 12.32 268.873 12.84V12.9ZM278.616 19C278.483 19 278.37 18.9533 278.276 18.86C278.183 18.7667 278.136 18.6533 278.136 18.52V9.08C278.136 8.94667 278.183 8.83333 278.276 8.74C278.37 8.64667 278.483 8.6 278.616 8.6H280.256C280.39 8.6 280.503 8.64667 280.596 8.74C280.69 8.83333 280.736 8.94667 280.736 9.08V9.9C281.083 9.47333 281.523 9.12 282.056 8.84C282.603 8.54667 283.276 8.4 284.076 8.4C284.89 8.4 285.596 8.58667 286.196 8.96C286.796 9.32 287.256 9.83333 287.576 10.5C287.91 11.1667 288.076 11.9667 288.076 12.9V18.52C288.076 18.6533 288.03 18.7667 287.936 18.86C287.843 18.9533 287.73 19 287.596 19H285.836C285.703 19 285.59 18.9533 285.496 18.86C285.403 18.7667 285.356 18.6533 285.356 18.52V13.02C285.356 12.2467 285.163 11.64 284.776 11.2C284.403 10.76 283.856 10.54 283.136 10.54C282.443 10.54 281.89 10.76 281.476 11.2C281.063 11.64 280.856 12.2467 280.856 13.02V18.52C280.856 18.6533 280.81 18.7667 280.716 18.86C280.623 18.9533 280.51 19 280.376 19H278.616ZM295.2 19C294.4 19 293.726 18.86 293.18 18.58C292.633 18.3 292.226 17.8867 291.96 17.34C291.693 16.78 291.56 16.0867 291.56 15.26V10.72H289.98C289.846 10.72 289.733 10.6733 289.64 10.58C289.546 10.4867 289.5 10.3733 289.5 10.24V9.08C289.5 8.94667 289.546 8.83333 289.64 8.74C289.733 8.64667 289.846 8.6 289.98 8.6H291.56V5.28C291.56 5.14667 291.6 5.03333 291.68 4.94C291.773 4.84667 291.893 4.8 292.04 4.8H293.66C293.793 4.8 293.906 4.84667 294 4.94C294.093 5.03333 294.14 5.14667 294.14 5.28V8.6H296.64C296.773 8.6 296.886 8.64667 296.98 8.74C297.073 8.83333 297.12 8.94667 297.12 9.08V10.24C297.12 10.3733 297.073 10.4867 296.98 10.58C296.886 10.6733 296.773 10.72 296.64 10.72H294.14V15.06C294.14 15.6067 294.233 16.0333 294.42 16.34C294.62 16.6467 294.96 16.8 295.44 16.8H296.82C296.953 16.8 297.066 16.8467 297.16 16.94C297.253 17.0333 297.3 17.1467 297.3 17.28V18.52C297.3 18.6533 297.253 18.7667 297.16 18.86C297.066 18.9533 296.953 19 296.82 19H295.2Z" fill="white"/>
<defs>
<filter id="filter0_bd_19_4298" x="353.479" y="110.97" width="44.5284" height="45.9198" filterUnits="userSpaceOnUse" color-interpolation-filters="sRGB">
<feFlood flood-opacity="0" result="BackgroundImageFix"/>
<feGaussianBlur in="BackgroundImageFix" stdDeviation="7.5"/>
<feComposite in2="SourceAlpha" operator="in" result="effect1_backgroundBlur_19_4298"/>
<feColorMatrix in="SourceAlpha" type="matrix" values="0 0 0 0 0 0 0 0 0 0 0 0 0 0 0 0 0 0 127 0" result="hardAlpha"/>
<feOffset dx="5" dy="5"/>
<feGaussianBlur stdDeviation="5"/>
<feColorMatrix type="matrix" values="0 0 0 0 0.00761719 0 0 0 0 0.00761719 0 0 0 0 0.00761719 0 0 0 0.5 0"/>
<feBlend mode="normal" in2="effect1_backgroundBlur_19_4298" result="effect2_dropShadow_19_4298"/>
<feBlend mode="normal" in="SourceGraphic" in2="effect2_dropShadow_19_4298" result="shape"/>
</filter>
<filter id="filter1_bd_19_4298" x="219.216" y="352.991" width="48.001" height="45.9929" filterUnits="userSpaceOnUse" color-interpolation-filters="sRGB">
<feFlood flood-opacity="0" result="BackgroundImageFix"/>
<feGaussianBlur in="BackgroundImageFix" stdDeviation="7.5"/>
<feComposite in2="SourceAlpha" operator="in" result="effect1_backgroundBlur_19_4298"/>
<feColorMatrix in="SourceAlpha" type="matrix" values="0 0 0 0 0 0 0 0 0 0 0 0 0 0 0 0 0 0 127 0" result="hardAlpha"/>
<feOffset dx="5" dy="5"/>
<feGaussianBlur stdDeviation="5"/>
<feColorMatrix type="matrix" values="0 0 0 0 0.00761719 0 0 0 0 0.00761719 0 0 0 0 0.00761719 0 0 0 0.5 0"/>
<feBlend mode="normal" in2="effect1_backgroundBlur_19_4298" result="effect2_dropShadow_19_4298"/>
<feBlend mode="normal" in="SourceGraphic" in2="effect2_dropShadow_19_4298" result="shape"/>
</filter>
<filter id="filter2_bd_19_4298" x="85.7056" y="113.821" width="44.2191" height="46.0625" filterUnits="userSpaceOnUse" color-interpolation-filters="sRGB">
<feFlood flood-opacity="0" result="BackgroundImageFix"/>
<feGaussianBlur in="BackgroundImageFix" stdDeviation="7.5"/>
<feComposite in2="SourceAlpha" operator="in" result="effect1_backgroundBlur_19_4298"/>
<feColorMatrix in="SourceAlpha" type="matrix" values="0 0 0 0 0 0 0 0 0 0 0 0 0 0 0 0 0 0 127 0" result="hardAlpha"/>
<feOffset dx="5" dy="5"/>
<feGaussianBlur stdDeviation="5"/>
<feColorMatrix type="matrix" values="0 0 0 0 0.00761719 0 0 0 0 0.00761719 0 0 0 0 0.00761719 0 0 0 0.5 0"/>
<feBlend mode="normal" in2="effect1_backgroundBlur_19_4298" result="effect2_dropShadow_19_4298"/>
<feBlend mode="normal" in="SourceGraphic" in2="effect2_dropShadow_19_4298" result="shape"/>
</filter>
<linearGradient id="paint0_linear_19_4298" x1="84" y1="59.9951" x2="407.845" y2="67.1742" gradientUnits="userSpaceOnUse">
<stop stop-color="#5484FF"/>
<stop offset="1" stop-color="#0CC3CF"/>
</linearGradient>
<linearGradient id="paint1_linear_19_4298" x1="358" y1="276.978" x2="398.864" y2="277.881" gradientUnits="userSpaceOnUse">
<stop stop-color="#5484FF"/>
<stop offset="1" stop-color="#0CC3CF"/>
</linearGradient>
<linearGradient id="paint2_linear_19_4298" x1="373" y1="285.31" x2="384.072" y2="285.421" gradientUnits="userSpaceOnUse">
<stop stop-color="#5484FF"/>
<stop offset="1" stop-color="#0CC3CF"/>
</linearGradient>
<linearGradient id="paint3_linear_19_4298" x1="86" y1="276.978" x2="126.864" y2="277.881" gradientUnits="userSpaceOnUse">
<stop stop-color="#5484FF"/>
<stop offset="1" stop-color="#0CC3CF"/>
</linearGradient>
<linearGradient id="paint4_linear_19_4298" x1="101" y1="285.31" x2="112.072" y2="285.421" gradientUnits="userSpaceOnUse">
<stop stop-color="#5484FF"/>
<stop offset="1" stop-color="#0CC3CF"/>
</linearGradient>
<linearGradient id="paint5_linear_19_4298" x1="222" y1="39.9968" x2="262.864" y2="40.8998" gradientUnits="userSpaceOnUse">
<stop stop-color="#5484FF"/>
<stop offset="1" stop-color="#0CC3CF"/>
</linearGradient>
<linearGradient id="paint6_linear_19_4298" x1="237" y1="48.3295" x2="248.072" y2="48.4399" gradientUnits="userSpaceOnUse">
<stop stop-color="#5484FF"/>
<stop offset="1" stop-color="#0CC3CF"/>
</linearGradient>
</defs>
</svg>
