<svg width="72" height="70" viewBox="0 0 72 70" fill="none" xmlns="http://www.w3.org/2000/svg">
<g opacity="0.5">
<path opacity="0.4" d="M38.5688 46.0844C38.3678 46.206 38.1404 46.2795 37.9051 46.2914L30.3241 46.675C28.1724 46.7829 26.3215 46.5629 24.6635 46.005C21.0358 44.786 17.9915 42.2455 16.0935 38.8478L9.84257 27.6672C9.12088 26.377 9.28266 24.7291 10.2407 23.5657L18.8239 13.1739C19.3305 12.5512 20.0394 12.1178 20.8141 11.9542L33.6608 9.20264C35.0977 8.89263 36.5489 9.55354 37.268 10.8431L43.5236 22.032C45.4204 25.4237 46.0474 29.4445 45.2907 33.354C44.9433 35.1474 44.2193 36.9453 43.0798 38.8509L39.0638 45.5792C38.9399 45.7891 38.7688 45.9612 38.5688 46.0844" fill="#268EEC"/>
<g filter="url(#filter0_f_158_7)">
<path d="M35.2161 39.4229C35.0798 39.5053 34.9279 39.5593 34.7729 39.5758L29.781 40.1072C28.3642 40.2574 27.1565 40.1946 26.0876 39.917C23.7486 39.3105 21.8398 37.8703 20.7142 35.8593L17.0067 29.2421C16.5786 28.4785 16.7434 27.4609 17.4139 26.7095L23.4197 19.9973C23.7745 19.5954 24.2554 19.3018 24.77 19.1712L33.304 16.9811C34.2586 16.7348 35.1881 17.0837 35.6145 17.847L39.3247 24.4691C40.4498 26.4765 40.7186 28.9195 40.0828 31.3481C39.7909 32.4623 39.2516 33.5938 38.4355 34.8078L35.5592 39.0935C35.4703 39.2272 35.3519 39.3394 35.2161 39.4229" fill="#272933"/>
</g>
</g>
<g filter="url(#filter1_b_158_7)">
<mask id="path-3-outside-1_158_7" maskUnits="userSpaceOnUse" x="20.3704" y="9.46612" width="52.2438" height="61.1294" fill="black">
<rect fill="white" x="20.3704" y="9.46612" width="52.2438" height="61.1294"/>
<path d="M42.712 65.3934C42.4069 65.3404 42.1125 65.2147 41.859 65.019L33.69 58.7143C31.3722 56.9238 29.627 55.0634 28.3506 53.0275C25.5564 48.5747 24.4178 43.2845 25.1498 38.1295L27.5528 21.1616C27.8297 19.2032 29.3075 17.6592 31.2261 17.3146L48.3902 14.2593C49.4107 14.0694 50.4905 14.252 51.4242 14.769L66.9379 23.3016C68.6749 24.2537 69.6549 26.2123 69.3758 28.1677L66.9709 45.1482C66.2425 50.2961 63.6968 54.9662 59.8043 58.2997C58.0184 59.8287 55.8382 61.0296 53.1414 61.9737L43.6271 65.3136C43.3316 65.419 43.0175 65.444 42.712 65.3934"/>
</mask>
<path d="M42.712 65.3934C42.4069 65.3404 42.1125 65.2147 41.859 65.019L33.69 58.7143C31.3722 56.9238 29.627 55.0634 28.3506 53.0275C25.5564 48.5747 24.4178 43.2845 25.1498 38.1295L27.5528 21.1616C27.8297 19.2032 29.3075 17.6592 31.2261 17.3146L48.3902 14.2593C49.4107 14.0694 50.4905 14.252 51.4242 14.769L66.9379 23.3016C68.6749 24.2537 69.6549 26.2123 69.3758 28.1677L66.9709 45.1482C66.2425 50.2961 63.6968 54.9662 59.8043 58.2997C58.0184 59.8287 55.8382 61.0296 53.1414 61.9737L43.6271 65.3136C43.3316 65.419 43.0175 65.444 42.712 65.3934" fill="#1C1E28" fill-opacity="0.17"/>
<path d="M42.5657 66.3827C43.1099 66.4773 43.6166 66.1111 43.6974 65.5648C43.7782 65.0185 43.4026 64.4989 42.8583 64.4042L42.5657 66.3827ZM41.859 65.019L42.4526 64.2274L42.4526 64.2274L41.859 65.019ZM33.69 58.7143L33.0961 59.5056L33.0964 59.5059L33.69 58.7143ZM28.3506 53.0275L29.1891 52.506L29.1889 52.5057L28.3506 53.0275ZM25.1498 38.1295L26.136 38.2952L26.136 38.2948L25.1498 38.1295ZM27.5528 21.1616L28.539 21.3268L28.5391 21.3266L27.5528 21.1616ZM31.2261 17.3146L31.03 16.3258L31.0285 16.326L31.2261 17.3146ZM48.3902 14.2593L48.5863 15.2481L48.5939 15.2467L48.3902 14.2593ZM51.4242 14.769L50.9608 15.6462L50.9633 15.6476L51.4242 14.769ZM66.9379 23.3016L66.477 24.1802L66.4783 24.1809L66.9379 23.3016ZM69.3758 28.1677L68.3897 28.0014L68.3895 28.0025L69.3758 28.1677ZM66.9709 45.1482L65.9847 44.983L65.9847 44.9831L66.9709 45.1482ZM59.8043 58.2997L60.4598 59.0714L60.4599 59.0713L59.8043 58.2997ZM53.1414 61.9737L52.7944 61.0245L52.7936 61.0247L53.1414 61.9737ZM43.6271 65.3136L43.2793 64.3647L43.2749 64.3662L43.6271 65.3136ZM42.8503 64.4028C42.3054 64.3127 41.8018 64.6831 41.7255 65.2302C41.6491 65.7772 42.0289 66.2938 42.5738 66.384L42.8503 64.4028ZM42.8583 64.4042C42.7084 64.3781 42.5691 64.3173 42.4526 64.2274L41.2654 65.8106C41.656 66.1121 42.1054 66.3026 42.5657 66.3827L42.8583 64.4042ZM42.4526 64.2274L34.2835 57.9226L33.0964 59.5059L41.2655 65.8106L42.4526 64.2274ZM34.2839 57.9229C32.0425 56.1915 30.3881 54.4184 29.1891 52.506L27.5121 53.549C28.8659 55.7083 30.7018 57.6561 33.0961 59.5056L34.2839 57.9229ZM29.1889 52.5057C26.524 48.2589 25.4377 43.2128 26.136 38.2952L24.1636 37.9639C23.3979 43.3563 24.5887 48.8905 27.5123 53.5494L29.1889 52.5057ZM26.136 38.2948L28.539 21.3268L26.5665 20.9963L24.1635 37.9643L26.136 38.2948ZM28.5391 21.3266C28.757 19.7857 29.9204 18.5731 31.4237 18.3031L31.0285 16.326C28.6945 16.7452 26.9025 18.6207 26.5665 20.9965L28.5391 21.3266ZM31.4222 18.3033L48.5863 15.2481L48.1941 13.2705L31.03 16.3258L31.4222 18.3033ZM48.5939 15.2467C49.3837 15.0997 50.2281 15.2405 50.9608 15.6462L51.8875 13.8917C50.7529 13.2635 49.4376 13.0391 48.1865 13.2719L48.5939 15.2467ZM50.9633 15.6476L66.477 24.1802L67.3987 22.423L51.885 13.8904L50.9633 15.6476ZM66.4783 24.1809C67.8366 24.9254 68.6092 26.4628 68.3897 28.0014L70.3619 28.3341C70.7005 25.9617 69.5131 23.5819 67.3974 22.4223L66.4783 24.1809ZM68.3895 28.0025L65.9847 44.983L67.9572 45.3135L70.3621 28.333L68.3895 28.0025ZM65.9847 44.9831C65.2898 49.894 62.8613 54.3487 59.1487 57.5282L60.4599 59.0713C64.5324 55.5836 67.1953 50.6983 67.9572 45.3134L65.9847 44.9831ZM59.1488 57.5281C57.4711 58.9644 55.4019 60.1116 52.7944 61.0245L53.4883 62.9229C56.2745 61.9476 58.5657 60.6931 60.4598 59.0714L59.1488 57.5281ZM52.7936 61.0247L43.2793 64.3647L43.9749 66.2626L53.4891 62.9227L52.7936 61.0247ZM43.2749 64.3662C43.1393 64.4146 42.994 64.4266 42.8503 64.4028L42.5738 66.384C43.041 66.4613 43.524 66.4233 43.9793 66.261L43.2749 64.3662Z" fill="url(#paint0_linear_158_7)" mask="url(#path-3-outside-1_158_7)"/>
</g>
<g filter="url(#filter2_bd_158_7)">
<path d="M42.7429 49.264L45.0588 33.6148L38.3012 38.7099C37.4817 39.3006 36.3634 39.1064 35.7553 38.2677C35.1711 37.4332 35.3462 36.2502 36.1419 35.6554L46.4393 27.9144C47.2076 27.34 48.3972 27.5467 48.9613 28.3524L56.5088 39.1932C57.0931 40.0277 56.918 41.2107 56.1222 41.8055C55.7143 42.0885 55.2307 42.2067 54.781 42.1286C54.3289 42.0501 53.8822 41.7703 53.6002 41.3674L48.6277 34.2348L46.3119 49.8839C46.1587 50.919 45.2532 51.5958 44.2539 51.4223C43.2784 51.2528 42.5898 50.299 42.7429 49.264Z" fill="#268EEC"/>
<path d="M45.1937 33.3863L45.1573 33.632L42.8415 49.2811C42.6961 50.2636 43.3495 51.1637 44.2685 51.3233C45.2105 51.487 46.0678 50.8502 46.2134 49.8668L48.5292 34.2177L48.5654 33.9727L48.7088 34.1784L53.6811 41.3108L45.1937 33.3863ZM45.1937 33.3863L44.9979 33.5339M45.1937 33.3863L44.9979 33.5339M44.9979 33.5339L38.2412 38.6284M44.9979 33.5339L38.2412 38.6284M38.2412 38.6284C37.4661 39.1864 36.411 39.0031 35.8358 38.2104C35.2835 37.4207 35.4497 36.2993 36.2025 35.7365L36.2027 35.7364L46.4998 27.9955C46.4999 27.9954 46.4999 27.9954 46.5 27.9954C47.2236 27.4546 48.3489 27.6501 48.8803 28.4088C48.8803 28.4089 48.8803 28.4089 48.8804 28.409L56.4277 39.2495L56.4279 39.2497C56.9804 40.039 56.8149 41.1601 56.0631 41.7233C55.6737 41.9929 55.2163 42.1028 54.7956 42.0297C54.3704 41.9558 53.9476 41.6914 53.6812 41.311L38.2412 38.6284Z" stroke="#268EEC" stroke-width="0.2"/>
</g>
<defs>
<filter id="filter0_f_158_7" x="0.77063" y="0.903076" width="55.6494" height="55.2834" filterUnits="userSpaceOnUse" color-interpolation-filters="sRGB">
<feFlood flood-opacity="0" result="BackgroundImageFix"/>
<feBlend mode="normal" in="SourceGraphic" in2="BackgroundImageFix" result="shape"/>
<feGaussianBlur stdDeviation="8" result="effect1_foregroundBlur_158_7"/>
</filter>
<filter id="filter1_b_158_7" x="-0.0628662" y="-10.8179" width="94.4819" height="101.24" filterUnits="userSpaceOnUse" color-interpolation-filters="sRGB">
<feFlood flood-opacity="0" result="BackgroundImageFix"/>
<feGaussianBlur in="BackgroundImageFix" stdDeviation="12"/>
<feComposite in2="SourceAlpha" operator="in" result="effect1_backgroundBlur_158_7"/>
<feBlend mode="normal" in="SourceGraphic" in2="effect1_backgroundBlur_158_7" result="shape"/>
</filter>
<filter id="filter2_bd_158_7" x="20.4099" y="12.5879" width="51.4445" height="53.8616" filterUnits="userSpaceOnUse" color-interpolation-filters="sRGB">
<feFlood flood-opacity="0" result="BackgroundImageFix"/>
<feGaussianBlur in="BackgroundImageFix" stdDeviation="7.5"/>
<feComposite in2="SourceAlpha" operator="in" result="effect1_backgroundBlur_158_7"/>
<feColorMatrix in="SourceAlpha" type="matrix" values="0 0 0 0 0 0 0 0 0 0 0 0 0 0 0 0 0 0 127 0" result="hardAlpha"/>
<feOffset dx="5" dy="5"/>
<feGaussianBlur stdDeviation="5"/>
<feColorMatrix type="matrix" values="0 0 0 0 0.00761719 0 0 0 0 0.00761719 0 0 0 0 0.00761719 0 0 0 0.5 0"/>
<feBlend mode="normal" in2="effect1_backgroundBlur_158_7" result="effect2_dropShadow_158_7"/>
<feBlend mode="normal" in="SourceGraphic" in2="effect2_dropShadow_158_7" result="shape"/>
</filter>
<linearGradient id="paint0_linear_158_7" x1="29.111" y1="10.6267" x2="71.9767" y2="17.7665" gradientUnits="userSpaceOnUse">
<stop stop-color="#5484FF"/>
<stop offset="1" stop-color="#0CC3CF"/>
</linearGradient>
</defs>
</svg>
