<svg width="112" height="17" viewBox="0 0 112 17" fill="none" xmlns="http://www.w3.org/2000/svg">
<path d="M5.23526 13.18C4.13126 13.18 3.21326 12.976 2.48126 12.568C1.76126 12.16 1.21526 11.59 0.843257 10.858C0.471257 10.126 0.267257 9.27399 0.231257 8.30199C0.219257 7.80999 0.213257 7.28199 0.213257 6.71799C0.213257 6.15399 0.219257 5.61399 0.231257 5.09799C0.267257 4.12599 0.471257 3.27399 0.843257 2.54199C1.21526 1.80999 1.76126 1.23999 2.48126 0.831993C3.21326 0.423993 4.13126 0.219994 5.23526 0.219994C6.06326 0.219994 6.78926 0.333994 7.41326 0.561993C8.03726 0.789993 8.55326 1.09599 8.96126 1.47999C9.38126 1.86399 9.69926 2.29599 9.91526 2.77599C10.1313 3.24399 10.2513 3.72999 10.2753 4.23399C10.2873 4.34199 10.2513 4.43199 10.1673 4.50399C10.0953 4.57599 10.0053 4.61199 9.89726 4.61199H8.90726C8.79926 4.61199 8.70326 4.58199 8.61926 4.52199C8.54726 4.46199 8.49326 4.35399 8.45726 4.19799C8.25326 3.26199 7.86926 2.61999 7.30526 2.27199C6.75326 1.92399 6.05726 1.74999 5.21726 1.74999C4.25726 1.74999 3.49526 2.02599 2.93126 2.57799C2.36726 3.11799 2.06126 3.98799 2.01326 5.18799C1.97726 6.17199 1.97726 7.17999 2.01326 8.21199C2.06126 9.41199 2.36726 10.288 2.93126 10.84C3.49526 11.38 4.25726 11.65 5.21726 11.65C6.05726 11.65 6.75326 11.476 7.30526 11.128C7.86926 10.78 8.25326 10.138 8.45726 9.20199C8.49326 9.04599 8.54726 8.93799 8.61926 8.87799C8.70326 8.81799 8.79926 8.78799 8.90726 8.78799H9.89726C10.0053 8.78799 10.0953 8.82399 10.1673 8.89599C10.2513 8.96799 10.2873 9.05799 10.2753 9.16599C10.2513 9.66999 10.1313 10.162 9.91526 10.642C9.69926 11.11 9.38126 11.536 8.96126 11.92C8.55326 12.304 8.03726 12.61 7.41326 12.838C6.78926 13.066 6.06326 13.18 5.23526 13.18Z" fill="white"/>
<path d="M13.2275 13C13.1075 13 13.0055 12.964 12.9215 12.892C12.8495 12.808 12.8135 12.706 12.8135 12.586V4.07199C12.8135 3.95199 12.8495 3.84999 12.9215 3.76599C13.0055 3.68199 13.1075 3.63999 13.2275 3.63999H14.0555C14.1755 3.63999 14.2775 3.68199 14.3615 3.76599C14.4455 3.84999 14.4875 3.95199 14.4875 4.07199V4.86399C14.7275 4.45599 15.0575 4.14999 15.4775 3.94599C15.8975 3.74199 16.4015 3.63999 16.9895 3.63999H17.7095C17.8295 3.63999 17.9255 3.68199 17.9975 3.76599C18.0695 3.83799 18.1055 3.93399 18.1055 4.05399V4.79199C18.1055 4.91199 18.0695 5.00799 17.9975 5.07999C17.9255 5.15199 17.8295 5.18799 17.7095 5.18799H16.6295C15.9815 5.18799 15.4715 5.37999 15.0995 5.76399C14.7275 6.13599 14.5415 6.64599 14.5415 7.29399V12.586C14.5415 12.706 14.4995 12.808 14.4155 12.892C14.3315 12.964 14.2295 13 14.1095 13H13.2275Z" fill="white"/>
<path d="M21.6494 16.42C21.5534 16.42 21.4694 16.384 21.3974 16.312C21.3254 16.24 21.2894 16.156 21.2894 16.06C21.2894 16.012 21.2954 15.964 21.3074 15.916C21.3194 15.868 21.3434 15.808 21.3794 15.736L22.7654 12.442L19.3274 4.32399C19.2674 4.17999 19.2374 4.07799 19.2374 4.01799C19.2374 3.90999 19.2734 3.81999 19.3454 3.74799C19.4174 3.67599 19.5074 3.63999 19.6154 3.63999H20.4974C20.6174 3.63999 20.7134 3.66999 20.7854 3.72999C20.8574 3.78999 20.9054 3.86199 20.9294 3.94599L23.6654 10.498L26.4734 3.94599C26.5094 3.86199 26.5574 3.78999 26.6174 3.72999C26.6894 3.66999 26.7914 3.63999 26.9234 3.63999H27.7694C27.8774 3.63999 27.9674 3.67599 28.0394 3.74799C28.1114 3.81999 28.1474 3.90399 28.1474 3.99999C28.1474 4.05999 28.1174 4.16799 28.0574 4.32399L22.9454 16.114C22.9094 16.198 22.8554 16.27 22.7834 16.33C22.7234 16.39 22.6274 16.42 22.4954 16.42H21.6494Z" fill="white"/>
<path d="M30.7175 16.42C30.5975 16.42 30.4955 16.378 30.4115 16.294C30.3395 16.222 30.3035 16.126 30.3035 16.006V4.05399C30.3035 3.93399 30.3395 3.83799 30.4115 3.76599C30.4955 3.68199 30.5975 3.63999 30.7175 3.63999H31.5455C31.6655 3.63999 31.7615 3.68199 31.8335 3.76599C31.9175 3.83799 31.9595 3.93399 31.9595 4.05399V4.84599C32.2475 4.44999 32.6315 4.11999 33.1115 3.85599C33.5915 3.59199 34.1915 3.45999 34.9115 3.45999C35.5835 3.45999 36.1535 3.57399 36.6215 3.80199C37.1015 4.02999 37.4915 4.34199 37.7915 4.73799C38.1035 5.13399 38.3375 5.58399 38.4935 6.08799C38.6495 6.59199 38.7335 7.13199 38.7455 7.70799C38.7575 7.89999 38.7635 8.10399 38.7635 8.31999C38.7635 8.53599 38.7575 8.73999 38.7455 8.93199C38.7335 9.49599 38.6495 10.036 38.4935 10.552C38.3375 11.056 38.1035 11.506 37.7915 11.902C37.4915 12.286 37.1015 12.598 36.6215 12.838C36.1535 13.066 35.5835 13.18 34.9115 13.18C34.2155 13.18 33.6275 13.054 33.1475 12.802C32.6795 12.538 32.2955 12.214 31.9955 11.83V16.006C31.9955 16.126 31.9595 16.222 31.8875 16.294C31.8155 16.378 31.7135 16.42 31.5815 16.42H30.7175ZM34.5335 11.722C35.1575 11.722 35.6435 11.59 35.9915 11.326C36.3515 11.05 36.6095 10.696 36.7655 10.264C36.9215 9.81999 37.0115 9.34599 37.0355 8.84199C37.0475 8.49399 37.0475 8.14599 37.0355 7.79799C37.0115 7.29399 36.9215 6.82599 36.7655 6.39399C36.6095 5.94999 36.3515 5.59599 35.9915 5.33199C35.6435 5.05599 35.1575 4.91799 34.5335 4.91799C33.9455 4.91799 33.4655 5.05599 33.0935 5.33199C32.7335 5.60799 32.4635 5.96199 32.2835 6.39399C32.1155 6.81399 32.0195 7.24599 31.9955 7.68999C31.9835 7.88199 31.9775 8.10999 31.9775 8.37399C31.9775 8.63799 31.9835 8.87199 31.9955 9.07599C32.0075 9.49599 32.1035 9.90999 32.2835 10.318C32.4755 10.726 32.7575 11.062 33.1295 11.326C33.5015 11.59 33.9695 11.722 34.5335 11.722Z" fill="white"/>
<path d="M44.9167 13C44.2447 13 43.6987 12.874 43.2787 12.622C42.8587 12.358 42.5527 11.992 42.3607 11.524C42.1687 11.044 42.0727 10.48 42.0727 9.83199V5.07999H40.6687C40.5487 5.07999 40.4467 5.04399 40.3627 4.97199C40.2907 4.88799 40.2547 4.78599 40.2547 4.66599V4.05399C40.2547 3.93399 40.2907 3.83799 40.3627 3.76599C40.4467 3.68199 40.5487 3.63999 40.6687 3.63999H42.0727V0.633994C42.0727 0.513994 42.1087 0.417994 42.1807 0.345994C42.2647 0.261994 42.3667 0.219994 42.4867 0.219994H43.3327C43.4527 0.219994 43.5487 0.261994 43.6207 0.345994C43.7047 0.417994 43.7467 0.513994 43.7467 0.633994V3.63999H45.9787C46.0987 3.63999 46.1947 3.68199 46.2667 3.76599C46.3507 3.83799 46.3927 3.93399 46.3927 4.05399V4.66599C46.3927 4.78599 46.3507 4.88799 46.2667 4.97199C46.1947 5.04399 46.0987 5.07999 45.9787 5.07999H43.7467V9.70599C43.7467 10.27 43.8427 10.714 44.0347 11.038C44.2267 11.362 44.5687 11.524 45.0607 11.524H46.1587C46.2787 11.524 46.3747 11.566 46.4467 11.65C46.5307 11.722 46.5727 11.818 46.5727 11.938V12.586C46.5727 12.706 46.5307 12.808 46.4467 12.892C46.3747 12.964 46.2787 13 46.1587 13H44.9167Z" fill="white"/>
<path d="M52.4879 13.18C51.5759 13.18 50.8139 13.006 50.2019 12.658C49.5899 12.31 49.1219 11.83 48.7979 11.218C48.4739 10.594 48.2939 9.88599 48.2579 9.09399C48.2459 8.88999 48.2399 8.63199 48.2399 8.31999C48.2399 7.99599 48.2459 7.73799 48.2579 7.54599C48.2939 6.74199 48.4739 6.03399 48.7979 5.42199C49.1339 4.80999 49.6079 4.32999 50.2199 3.98199C50.8319 3.63399 51.5879 3.45999 52.4879 3.45999C53.3879 3.45999 54.1439 3.63399 54.7559 3.98199C55.3679 4.32999 55.8359 4.80999 56.1599 5.42199C56.4959 6.03399 56.6819 6.74199 56.7179 7.54599C56.7299 7.73799 56.7359 7.99599 56.7359 8.31999C56.7359 8.63199 56.7299 8.88999 56.7179 9.09399C56.6819 9.88599 56.5019 10.594 56.1779 11.218C55.8539 11.83 55.3859 12.31 54.7739 12.658C54.1619 13.006 53.3999 13.18 52.4879 13.18ZM52.4879 11.794C53.2319 11.794 53.8259 11.56 54.2699 11.092C54.7139 10.612 54.9539 9.91599 54.9899 9.00399C55.0019 8.82399 55.0079 8.59599 55.0079 8.31999C55.0079 8.04399 55.0019 7.81599 54.9899 7.63599C54.9539 6.72399 54.7139 6.03399 54.2699 5.56599C53.8259 5.08599 53.2319 4.84599 52.4879 4.84599C51.7439 4.84599 51.1439 5.08599 50.6879 5.56599C50.2439 6.03399 50.0099 6.72399 49.9859 7.63599C49.9739 7.81599 49.9679 8.04399 49.9679 8.31999C49.9679 8.59599 49.9739 8.82399 49.9859 9.00399C50.0099 9.91599 50.2439 10.612 50.6879 11.092C51.1439 11.56 51.7439 11.794 52.4879 11.794Z" fill="white"/>
<path d="M59.7639 13C59.6439 13 59.5419 12.964 59.4579 12.892C59.3859 12.808 59.3499 12.706 59.3499 12.586V4.07199C59.3499 3.95199 59.3859 3.84999 59.4579 3.76599C59.5419 3.68199 59.6439 3.63999 59.7639 3.63999H60.5919C60.7119 3.63999 60.8139 3.68199 60.8979 3.76599C60.9819 3.84999 61.0239 3.95199 61.0239 4.07199V4.86399C61.2639 4.45599 61.5939 4.14999 62.0139 3.94599C62.4339 3.74199 62.9379 3.63999 63.5259 3.63999H64.2459C64.3659 3.63999 64.4619 3.68199 64.5339 3.76599C64.6059 3.83799 64.6419 3.93399 64.6419 4.05399V4.79199C64.6419 4.91199 64.6059 5.00799 64.5339 5.07999C64.4619 5.15199 64.3659 5.18799 64.2459 5.18799H63.1659C62.5179 5.18799 62.0079 5.37999 61.6359 5.76399C61.2639 6.13599 61.0779 6.64599 61.0779 7.29399V12.586C61.0779 12.706 61.0359 12.808 60.9519 12.892C60.8679 12.964 60.7659 13 60.6459 13H59.7639Z" fill="white"/>
<path d="M66.9617 13C66.8417 13 66.7397 12.964 66.6557 12.892C66.5837 12.808 66.5478 12.706 66.5478 12.586V4.05399C66.5478 3.93399 66.5837 3.83799 66.6557 3.76599C66.7397 3.68199 66.8417 3.63999 66.9617 3.63999H67.8258C67.9458 3.63999 68.0417 3.68199 68.1137 3.76599C68.1857 3.83799 68.2217 3.93399 68.2217 4.05399V12.586C68.2217 12.706 68.1857 12.808 68.1137 12.892C68.0417 12.964 67.9458 13 67.8258 13H66.9617ZM66.8177 1.89399C66.6977 1.89399 66.5957 1.85799 66.5117 1.78599C66.4398 1.70199 66.4037 1.59999 66.4037 1.47999V0.507994C66.4037 0.387994 66.4398 0.291993 66.5117 0.219994C66.5957 0.135994 66.6977 0.0939941 66.8177 0.0939941H67.9518C68.0718 0.0939941 68.1677 0.135994 68.2397 0.219994C68.3237 0.291993 68.3658 0.387994 68.3658 0.507994V1.47999C68.3658 1.59999 68.3237 1.70199 68.2397 1.78599C68.1677 1.85799 68.0718 1.89399 67.9518 1.89399H66.8177Z" fill="white"/>
<path d="M73.8771 13.18C73.2771 13.18 72.7311 13.06 72.2391 12.82C71.7471 12.58 71.3511 12.256 71.0511 11.848C70.7511 11.44 70.6011 10.978 70.6011 10.462C70.6011 9.63399 70.9371 8.97399 71.6091 8.48199C72.2811 7.98999 73.1571 7.66599 74.2371 7.50999L76.9191 7.13199V6.60999C76.9191 6.03399 76.7511 5.58399 76.4151 5.25999C76.0911 4.93599 75.5571 4.77399 74.8131 4.77399C74.2731 4.77399 73.8351 4.88199 73.4991 5.09799C73.1751 5.31399 72.9471 5.58999 72.8151 5.92599C72.7431 6.10599 72.6171 6.19599 72.4371 6.19599H71.6271C71.4951 6.19599 71.3931 6.15999 71.3211 6.08799C71.2611 6.00399 71.2311 5.90799 71.2311 5.79999C71.2311 5.61999 71.2971 5.39799 71.4291 5.13399C71.5731 4.86999 71.7891 4.61199 72.0771 4.35999C72.3651 4.10799 72.7311 3.89799 73.1751 3.72999C73.6311 3.54999 74.1831 3.45999 74.8311 3.45999C75.5511 3.45999 76.1571 3.55599 76.6491 3.74799C77.1411 3.92799 77.5251 4.17399 77.8011 4.48599C78.0891 4.79799 78.2931 5.15199 78.4131 5.54799C78.5451 5.94399 78.6111 6.34599 78.6111 6.75399V12.586C78.6111 12.706 78.5691 12.808 78.4851 12.892C78.4131 12.964 78.3171 13 78.1971 13H77.3691C77.2371 13 77.1351 12.964 77.0631 12.892C76.9911 12.808 76.9551 12.706 76.9551 12.586V11.812C76.7991 12.028 76.5891 12.244 76.3251 12.46C76.0611 12.664 75.7311 12.838 75.3351 12.982C74.9391 13.114 74.4531 13.18 73.8771 13.18ZM74.2551 11.83C74.7471 11.83 75.1971 11.728 75.6051 11.524C76.0131 11.308 76.3311 10.978 76.5591 10.534C76.7991 10.09 76.9191 9.53199 76.9191 8.85999V8.35599L74.8311 8.66199C73.9791 8.78199 73.3371 8.98599 72.9051 9.27399C72.4731 9.54999 72.2571 9.90399 72.2571 10.336C72.2571 10.672 72.3531 10.954 72.5451 11.182C72.7491 11.398 73.0011 11.56 73.3011 11.668C73.6131 11.776 73.9311 11.83 74.2551 11.83Z" fill="white"/>
<path d="M81.9728 13C81.8528 13 81.7508 12.964 81.6668 12.892C81.5948 12.808 81.5588 12.706 81.5588 12.586V4.05399C81.5588 3.93399 81.5948 3.83799 81.6668 3.76599C81.7508 3.68199 81.8528 3.63999 81.9728 3.63999H82.8188C82.9388 3.63999 83.0348 3.68199 83.1068 3.76599C83.1908 3.83799 83.2328 3.93399 83.2328 4.05399V4.84599C83.5448 4.43799 83.9348 4.10799 84.4028 3.85599C84.8828 3.59199 85.4948 3.45999 86.2388 3.45999C87.0188 3.45999 87.6788 3.63399 88.2188 3.98199C88.7708 4.31799 89.1848 4.79199 89.4608 5.40399C89.7368 6.00399 89.8748 6.70599 89.8748 7.50999V12.586C89.8748 12.706 89.8388 12.808 89.7668 12.892C89.6948 12.964 89.5988 13 89.4788 13H88.5788C88.4588 13 88.3568 12.964 88.2728 12.892C88.2008 12.808 88.1648 12.706 88.1648 12.586V7.59999C88.1648 6.75999 87.9608 6.10599 87.5528 5.63799C87.1448 5.15799 86.5448 4.91799 85.7528 4.91799C85.0088 4.91799 84.4088 5.15799 83.9528 5.63799C83.5088 6.10599 83.2868 6.75999 83.2868 7.59999V12.586C83.2868 12.706 83.2448 12.808 83.1608 12.892C83.0888 12.964 82.9928 13 82.8728 13H81.9728Z" fill="white"/>
<path d="M96.6148 13.18C95.7628 13.18 95.0248 13.018 94.4008 12.694C93.7888 12.358 93.3148 11.884 92.9788 11.272C92.6428 10.648 92.4628 9.90399 92.4388 9.03999C92.4268 8.85999 92.4208 8.61999 92.4208 8.31999C92.4208 8.01999 92.4268 7.77999 92.4388 7.59999C92.4628 6.73599 92.6428 5.99799 92.9788 5.38599C93.3148 4.76199 93.7888 4.28799 94.4008 3.96399C95.0248 3.62799 95.7628 3.45999 96.6148 3.45999C97.3108 3.45999 97.9048 3.55599 98.3968 3.74799C98.9008 3.93999 99.3148 4.18599 99.6388 4.48599C99.9628 4.78599 100.203 5.10999 100.359 5.45799C100.527 5.80599 100.617 6.13599 100.629 6.44799C100.641 6.56799 100.605 6.66399 100.521 6.73599C100.437 6.80799 100.335 6.84399 100.215 6.84399H99.3508C99.2308 6.84399 99.1408 6.81999 99.0808 6.77199C99.0208 6.71199 98.9608 6.61599 98.9008 6.48399C98.6848 5.89599 98.3908 5.48199 98.0188 5.24199C97.6468 5.00199 97.1848 4.88199 96.6328 4.88199C95.9128 4.88199 95.3248 5.10399 94.8688 5.54799C94.4248 5.99199 94.1848 6.70599 94.1488 7.68999C94.1368 8.12199 94.1368 8.54199 94.1488 8.94999C94.1848 9.94599 94.4248 10.666 94.8688 11.11C95.3248 11.542 95.9128 11.758 96.6328 11.758C97.1848 11.758 97.6468 11.638 98.0188 11.398C98.3908 11.158 98.6848 10.744 98.9008 10.156C98.9608 10.024 99.0208 9.93399 99.0808 9.88599C99.1408 9.82599 99.2308 9.79599 99.3508 9.79599H100.215C100.335 9.79599 100.437 9.832 100.521 9.90399C100.605 9.97599 100.641 10.072 100.629 10.192C100.617 10.444 100.563 10.702 100.467 10.966C100.371 11.23 100.215 11.5 99.9988 11.776C99.7948 12.04 99.5368 12.28 99.2248 12.496C98.9128 12.7 98.5348 12.868 98.0908 13C97.6588 13.12 97.1668 13.18 96.6148 13.18Z" fill="white"/>
<path d="M106.852 13.18C105.616 13.18 104.632 12.802 103.9 12.046C103.168 11.278 102.766 10.234 102.694 8.91399C102.682 8.75799 102.676 8.55999 102.676 8.31999C102.676 8.06799 102.682 7.86399 102.694 7.70799C102.742 6.85599 102.94 6.11199 103.288 5.47599C103.636 4.82799 104.11 4.32999 104.71 3.98199C105.322 3.63399 106.036 3.45999 106.852 3.45999C107.764 3.45999 108.526 3.65199 109.138 4.03599C109.762 4.41999 110.236 4.96599 110.56 5.67399C110.884 6.38199 111.046 7.20999 111.046 8.15799V8.46399C111.046 8.59599 111.004 8.69799 110.92 8.76999C110.848 8.84199 110.752 8.87799 110.632 8.87799H104.404C104.404 8.88999 104.404 8.91399 104.404 8.94999C104.404 8.98599 104.404 9.01599 104.404 9.03999C104.428 9.53199 104.536 9.99399 104.728 10.426C104.92 10.846 105.196 11.188 105.556 11.452C105.916 11.716 106.348 11.848 106.852 11.848C107.284 11.848 107.644 11.782 107.932 11.65C108.22 11.518 108.454 11.374 108.634 11.218C108.814 11.05 108.934 10.924 108.994 10.84C109.102 10.684 109.186 10.594 109.246 10.57C109.306 10.534 109.402 10.516 109.534 10.516H110.398C110.518 10.516 110.614 10.552 110.686 10.624C110.77 10.684 110.806 10.774 110.794 10.894C110.782 11.074 110.686 11.296 110.506 11.56C110.326 11.812 110.068 12.064 109.732 12.316C109.396 12.568 108.988 12.778 108.508 12.946C108.028 13.102 107.476 13.18 106.852 13.18ZM104.404 7.63599H109.336V7.58199C109.336 7.04199 109.234 6.56199 109.03 6.14199C108.838 5.72199 108.556 5.39199 108.184 5.15199C107.812 4.89999 107.368 4.77399 106.852 4.77399C106.336 4.77399 105.892 4.89999 105.52 5.15199C105.16 5.39199 104.884 5.72199 104.692 6.14199C104.5 6.56199 104.404 7.04199 104.404 7.58199V7.63599Z" fill="white"/>
</svg>
